<?xml version="1.0" encoding="UTF-8" standalone="no"?>
<!DOCTYPE score-partwise PUBLIC
"-//Recordare//DTD MusicXML 3.0 Partwise//EN"
 "http://www.musicxml.org/dtds/partwise.dtd">
<!-- Generated by ReadScoreLib (C) Organum Ltd and Dolphin Computing -->
<!-- This file is licensed for non-commercial use only -->
<!-- for ReadScoreLib licensing please contact support@playscore.co -->
<score-partwise version="3.0">
<identification>
<encoding>
<software>PlayScore 2</software>
<software>ReadScoreLib (© Organum Consulting and Dolphin Computing Ltd) Version 4.486</software>
<encoding-date>2023-06-13</encoding-date>
<supports element="beam" type="yes" value="yes"/>
<supports element="stem" type="yes" value="yes"/>
<supports element="accidental" type="yes" value="yes"/>
</encoding>
</identification>
<part-list>
 <score-part id="P1">
  <part-name print-object="no">Part 1</part-name>
 </score-part>
</part-list>
<part id="P1">
<measure number="1">
<attributes>
  <divisions>8</divisions>
  <time symbol="common">
    <beats>4</beats>
    <beat-type>4</beat-type>
  </time>
  <staves>1</staves>
<clef number="1">
    <sign>G</sign>
    <line>2</line>
  </clef>
</attributes>
<attributes>
  <key>
    <fifths>1</fifths>
  </key>
</attributes>
<note>
  <grace/>
  <pitch>
    <step>F</step>
    <alter>1</alter>
    <octave>5</octave>
  </pitch>
  <voice>1</voice>
  <type size="cue">16th</type>
  <stem>down</stem>
  <notations>
<slur type="start" number="1" placement="above" orientation="over"/>
  </notations>
</note>
<note>
  <pitch>
    <step>A</step>
    <alter>0</alter>
    <octave>5</octave>
  </pitch>
  <duration>16</duration>
  <voice>1</voice>
  <type>half</type>
  <stem>down</stem>
  <notations>
    <slur type="stop" number="1"/>
  </notations>
</note>
<note>
  <pitch>
    <step>B</step>
    <alter>0</alter>
    <octave>5</octave>
  </pitch>
  <duration>14</duration>
  <voice>1</voice>
  <type>quarter</type>
  <dot/>
  <dot/>
  <stem>down</stem>
  <notations>
<slur type="start" number="2" placement="above" orientation="over"/>
  </notations>
</note>
<note>
  <pitch>
    <step>A</step>
    <alter>0</alter>
    <octave>5</octave>
  </pitch>
  <duration>2</duration>
  <voice>1</voice>
  <type>16th</type>
  <stem>down</stem>
  <notations>
    <slur type="stop" number="2"/>
  </notations>
</note>
</measure>
<measure number="2">
<note>
  <pitch>
    <step>F</step>
    <alter>1</alter>
    <octave>5</octave>
  </pitch>
  <duration>14</duration>
  <voice>1</voice>
  <type>quarter</type>
  <dot/>
  <dot/>
  <stem>down</stem>
  <notations>
<slur type="start" number="3" placement="above" orientation="over"/>
  </notations>
</note>
<note>
  <pitch>
    <step>E</step>
    <alter>0</alter>
    <octave>5</octave>
  </pitch>
  <duration>2</duration>
  <voice>1</voice>
  <type>16th</type>
  <stem>down</stem>
</note>
<note>
  <pitch>
    <step>E</step>
    <alter>0</alter>
    <octave>5</octave>
  </pitch>
  <duration>8</duration>
  <voice>1</voice>
  <type>quarter</type>
  <stem>down</stem>
  <notations>
    <slur type="stop" number="3"/>
  </notations>
</note>
<note>
  <rest/>
  <duration>8</duration>
  <voice>1</voice>
  <type>quarter</type>
</note>
</measure>
<measure number="3">
<note>
  <pitch>
    <step>F</step>
    <alter>1</alter>
    <octave>5</octave>
  </pitch>
  <duration>8</duration>
  <voice>1</voice>
  <type>quarter</type>
  <stem>down</stem>
</note>
<note>
  <pitch>
    <step>A</step>
    <alter>0</alter>
    <octave>5</octave>
  </pitch>
  <duration>8</duration>
  <voice>1</voice>
  <type>quarter</type>
  <stem>down</stem>
</note>
<note>
  <pitch>
    <step>E</step>
    <alter>0</alter>
    <octave>5</octave>
  </pitch>
  <duration>14</duration>
  <voice>1</voice>
  <type>quarter</type>
  <dot/>
  <dot/>
  <stem>down</stem>
</note>
<note>
  <pitch>
    <step>D</step>
    <alter>0</alter>
    <octave>5</octave>
  </pitch>
  <duration>2</duration>
  <voice>1</voice>
  <type>16th</type>
  <stem>down</stem>
</note>
</measure>
<measure number="4">
<note>
  <pitch>
    <step>B</step>
    <alter>0</alter>
    <octave>4</octave>
  </pitch>
  <duration>16</duration>
  <voice>1</voice>
  <type>half</type>
  <stem>up</stem>
</note>
<note>
  <pitch>
    <step>D</step>
    <alter>0</alter>
    <octave>5</octave>
  </pitch>
  <duration>8</duration>
  <voice>1</voice>
  <type>quarter</type>
  <stem>down</stem>
  <notations>
<slur type="start" number="4" placement="above" orientation="over"/>
  </notations>
</note>
<note>
  <pitch>
    <step>B</step>
    <alter>0</alter>
    <octave>4</octave>
  </pitch>
  <duration>6</duration>
  <voice>1</voice>
  <type>eighth</type>
  <dot/>
  <stem>up</stem>
  <beam number="1">begin</beam>
</note>
<note>
  <pitch>
    <step>A</step>
    <alter>0</alter>
    <octave>4</octave>
  </pitch>
  <duration>2</duration>
  <voice>1</voice>
  <type>16th</type>
  <stem>up</stem>
  <beam number="1">end</beam>
  <beam number="2">backward hook</beam>
  <notations>
    <slur type="stop" number="4"/>
  </notations>
</note>
</measure>
<measure number="5">
<note>
  <pitch>
    <step>F</step>
    <alter>1</alter>
    <octave>4</octave>
  </pitch>
  <duration>16</duration>
  <voice>1</voice>
  <type>half</type>
  <stem>up</stem>
</note>
<note>
  <pitch>
    <step>E</step>
    <alter>0</alter>
    <octave>4</octave>
  </pitch>
  <duration>12</duration>
  <voice>1</voice>
  <type>quarter</type>
  <dot/>
  <stem>up</stem>
  <notations>
<articulations><staccatissimo placement="below"/></articulations>
  </notations>
</note>
<note>
  <pitch>
    <step>F</step>
    <alter>1</alter>
    <octave>4</octave>
  </pitch>
  <duration>4</duration>
  <voice>1</voice>
  <type>eighth</type>
  <stem>up</stem>
</note>
</measure>
<measure number="6">
<note>
  <pitch>
    <step>F</step>
    <alter>1</alter>
    <octave>4</octave>
  </pitch>
  <duration>16</duration>
  <voice>1</voice>
  <type>half</type>
  <stem>up</stem>
<notations><technical><fingering>3</fingering> </technical> </notations></note>
<note>
  <pitch>
    <step>F</step>
    <alter>1</alter>
    <octave>4</octave>
  </pitch>
  <duration>8</duration>
  <voice>1</voice>
  <type>quarter</type>
  <stem>up</stem>
</note>
<note>
  <pitch>
    <step>A</step>
    <alter>0</alter>
    <octave>4</octave>
  </pitch>
  <duration>8</duration>
  <voice>1</voice>
  <type>quarter</type>
  <stem>up</stem>
</note>
</measure>
<measure number="7">
<note>
  <pitch>
    <step>B</step>
    <alter>0</alter>
    <octave>4</octave>
  </pitch>
  <duration>16</duration>
  <voice>1</voice>
  <type>half</type>
  <stem>down</stem>
</note>
<note>
  <pitch>
    <step>D</step>
    <alter>0</alter>
    <octave>5</octave>
  </pitch>
  <duration>8</duration>
  <voice>1</voice>
  <type>quarter</type>
  <stem>down</stem>
</note>
<note>
  <pitch>
    <step>B</step>
    <alter>0</alter>
    <octave>4</octave>
  </pitch>
  <duration>8</duration>
  <voice>1</voice>
  <type>quarter</type>
  <stem>down</stem>
  <notations>
<slur type="start" number="5" placement="above" orientation="over"/>
  </notations>
</note>
</measure>
<measure number="8">
<note>
  <pitch>
    <step>E</step>
    <alter>0</alter>
    <octave>5</octave>
  </pitch>
  <duration>16</duration>
  <voice>1</voice>
  <type>half</type>
  <stem>down</stem>
  <notations>
    <slur type="stop" number="5"/>
  </notations>
</note>
<note>
  <pitch>
    <step>F</step>
    <alter>1</alter>
    <octave>5</octave>
  </pitch>
  <duration>6</duration>
  <voice>1</voice>
  <type>eighth</type>
  <dot/>
  <stem>down</stem>
  <beam number="1">begin</beam>
  <notations>
<slur type="start" number="1" placement="above" orientation="over"/>
  </notations>
</note>
<note>
  <pitch>
    <step>E</step>
    <alter>0</alter>
    <octave>5</octave>
  </pitch>
  <duration>2</duration>
  <voice>1</voice>
  <type>16th</type>
  <stem>down</stem>
  <beam number="1">end</beam>
  <beam number="2">backward hook</beam>
  <notations>
<articulations><staccato placement="below"/></articulations>
  </notations>
</note>
<note>
  <pitch>
    <step>D</step>
    <alter>0</alter>
    <octave>5</octave>
  </pitch>
  <duration>1</duration>
  <voice>1</voice>
  <type>32nd</type>
  <stem>down</stem>
  <beam number="1">begin</beam>
  <beam number="2">begin</beam>
  <beam number="3">begin</beam>
</note>
<note>
  <pitch>
    <step>B</step>
    <alter>0</alter>
    <octave>4</octave>
  </pitch>
  <duration>1</duration>
  <voice>1</voice>
  <type>32nd</type>
  <stem>down</stem>
  <beam number="1">continue</beam>
  <beam number="2">continue</beam>
  <beam number="3">continue</beam>
</note>
<note>
  <pitch>
    <step>D</step>
    <alter>0</alter>
    <octave>5</octave>
  </pitch>
  <duration>1</duration>
  <voice>1</voice>
  <type>32nd</type>
  <stem>down</stem>
  <beam number="1">continue</beam>
  <beam number="2">continue</beam>
  <beam number="3">continue</beam>
</note>
<note>
  <pitch>
    <step>B</step>
    <alter>0</alter>
    <octave>4</octave>
  </pitch>
  <duration>1</duration>
  <voice>1</voice>
  <type>32nd</type>
  <stem>down</stem>
  <beam number="1">end</beam>
  <beam number="2">end</beam>
  <beam number="3">end</beam>
  <notations>
<articulations><staccato placement="below"/></articulations>
  </notations>
</note>
<note>
  <rest/>
  <duration>4</duration>
  <voice>1</voice>
  <type>eighth</type>
</note>
</measure>
<measure number="9">
<note>
  <pitch>
    <step>B</step>
    <alter>0</alter>
    <octave>4</octave>
  </pitch>
  <duration>16</duration>
  <voice>1</voice>
  <type>half</type>
  <stem>up</stem>
  <notations>
    <slur type="stop" number="1"/>
  </notations>
</note>
<note>
  <pitch>
    <step>A</step>
    <alter>0</alter>
    <octave>4</octave>
  </pitch>
  <duration>12</duration>
  <voice>1</voice>
  <type>quarter</type>
  <dot/>
  <stem>up</stem>
  <notations>
<slur type="start" number="2" placement="below" orientation="under"/>
  </notations>
</note>
<note>
  <pitch>
    <step>D</step>
    <alter>0</alter>
    <octave>5</octave>
  </pitch>
  <duration>4</duration>
  <voice>1</voice>
  <type>eighth</type>
  <stem>down</stem>
  <notations>
    <slur type="stop" number="2"/>
  </notations>
</note>
</measure>
<measure number="10">
<note>
  <pitch>
    <step>B</step>
    <alter>0</alter>
    <octave>4</octave>
  </pitch>
  <duration>24</duration>
  <voice>1</voice>
  <type>half</type>
  <dot/>
  <stem>up</stem>
</note>
<note>
  <rest/>
  <duration>8</duration>
  <voice>1</voice>
  <type>quarter</type>
</note>
</measure>
<measure number="11">
<note>
  <pitch>
    <step>B</step>
    <alter>0</alter>
    <octave>4</octave>
  </pitch>
  <duration>16</duration>
  <voice>1</voice>
  <type>half</type>
  <stem>down</stem>
  <notations>
<slur type="start" number="3" placement="above" orientation="over"/>
<slur type="start" number="4" placement="above" orientation="over"/>
  </notations>
</note>
<note>
  <rest/>
  <duration>8</duration>
  <voice>1</voice>
  <type>quarter</type>
</note>
<note>
  <pitch>
    <step>A</step>
    <alter>0</alter>
    <octave>4</octave>
  </pitch>
  <duration>8</duration>
  <voice>1</voice>
  <type>quarter</type>
  <stem>up</stem>
  <notations>
    <slur type="stop" number="3"/>
    <slur type="stop" number="4"/>
  </notations>
</note>
</measure>
<measure number="12">
<note>
  <pitch>
    <step>F</step>
    <alter>1</alter>
    <octave>4</octave>
  </pitch>
  <duration>12</duration>
  <voice>1</voice>
  <type>quarter</type>
  <dot/>
  <stem>up</stem>
  <notations>
<slur type="start" number="5" placement="below" orientation="under"/>
  </notations>
</note>
<note>
  <pitch>
    <step>E</step>
    <alter>0</alter>
    <octave>4</octave>
  </pitch>
  <duration>4</duration>
  <voice>1</voice>
  <type>eighth</type>
  <stem>up</stem>
  <notations>
    <slur type="stop" number="5"/>
  </notations>
</note>
<note>
  <pitch>
    <step>F</step>
    <alter>1</alter>
    <octave>4</octave>
  </pitch>
  <duration>8</duration>
  <voice>1</voice>
  <type>quarter</type>
  <stem>up</stem>
</note>
<note>
  <pitch>
    <step>A</step>
    <alter>0</alter>
    <octave>4</octave>
  </pitch>
  <duration>8</duration>
  <voice>1</voice>
  <type>quarter</type>
  <stem>up</stem>
</note>
</measure>
<measure number="13">
<note>
  <pitch>
    <step>B</step>
    <alter>0</alter>
    <octave>4</octave>
  </pitch>
  <duration>12</duration>
  <voice>1</voice>
  <type>quarter</type>
  <dot/>
  <stem>down</stem>
</note>
<note>
  <pitch>
    <step>B</step>
    <alter>0</alter>
    <octave>4</octave>
  </pitch>
  <duration>8</duration>
  <voice>1</voice>
  <type>quarter</type>
  <stem>down</stem>
</note>
<note>
  <pitch>
    <step>D</step>
    <alter>0</alter>
    <octave>5</octave>
  </pitch>
  <duration>8</duration>
  <voice>1</voice>
  <type>quarter</type>
  <stem>down</stem>
</note>
<note>
  <pitch>
    <step>A</step>
    <alter>0</alter>
    <octave>4</octave>
  </pitch>
  <duration>4</duration>
  <voice>1</voice>
  <type>eighth</type>
  <stem>up</stem>
</note>
</measure>
<measure number="14">
<note>
  <pitch>
    <step>F</step>
    <alter>1</alter>
    <octave>4</octave>
  </pitch>
  <duration>12</duration>
  <voice>1</voice>
  <type>quarter</type>
  <dot/>
  <stem>up</stem>
  <notations>
<slur type="start" number="1" placement="below" orientation="under"/>
  </notations>
</note>
<note>
  <pitch>
    <step>E</step>
    <alter>0</alter>
    <octave>4</octave>
  </pitch>
  <duration>4</duration>
  <voice>1</voice>
  <type>eighth</type>
  <stem>up</stem>
  <notations>
    <slur type="stop" number="1"/>
  </notations>
</note>
<note>
  <pitch>
    <step>F</step>
    <alter>1</alter>
    <octave>4</octave>
  </pitch>
  <duration>8</duration>
  <voice>1</voice>
  <type>quarter</type>
  <stem>up</stem>
</note>
<note>
  <pitch>
    <step>A</step>
    <alter>0</alter>
    <octave>4</octave>
  </pitch>
  <duration>8</duration>
  <voice>1</voice>
  <type>quarter</type>
  <stem>up</stem>
</note>
</measure>
<measure number="15">
<note>
  <pitch>
    <step>B</step>
    <alter>0</alter>
    <octave>4</octave>
  </pitch>
  <duration>16</duration>
  <voice>1</voice>
  <type>half</type>
  <stem>up</stem>
</note>
<note>
  <pitch>
    <step>D</step>
    <alter>0</alter>
    <octave>5</octave>
  </pitch>
  <duration>8</duration>
  <voice>1</voice>
  <type>quarter</type>
  <stem>down</stem>
</note>
<note>
  <pitch>
    <step>B</step>
    <alter>0</alter>
    <octave>4</octave>
  </pitch>
  <duration>8</duration>
  <voice>1</voice>
  <type>quarter</type>
  <stem>down</stem>
  <notations>
<slur type="start" number="2" placement="above" orientation="over"/>
  </notations>
</note>
</measure>
<measure number="16">
<note>
  <pitch>
    <step>F</step>
    <alter>1</alter>
    <octave>5</octave>
  </pitch>
  <duration>6</duration>
  <voice>1</voice>
  <type>eighth</type>
  <dot/>
  <stem>down</stem>
  <beam number="1">begin</beam>
  <notations>
<slur type="start" number="3" placement="above" orientation="over"/>
<slur type="start" number="4" placement="above" orientation="over"/>
    <slur type="stop" number="2"/>
  </notations>
</note>
<note>
  <pitch>
    <step>E</step>
    <alter>0</alter>
    <octave>5</octave>
  </pitch>
  <duration>2</duration>
  <voice>1</voice>
  <type>16th</type>
  <stem>down</stem>
  <beam number="1">end</beam>
  <beam number="2">backward hook</beam>
  <notations>
    <slur type="stop" number="4"/>
  </notations>
</note>
<note>
  <pitch>
    <step>D</step>
    <alter>0</alter>
    <octave>5</octave>
  </pitch>
  <duration>1</duration>
  <voice>1</voice>
  <type>32nd</type>
  <stem>down</stem>
  <beam number="1">begin</beam>
  <beam number="2">begin</beam>
  <beam number="3">begin</beam>
</note>
<note>
  <pitch>
    <step>B</step>
    <alter>0</alter>
    <octave>4</octave>
  </pitch>
  <duration>1</duration>
  <voice>1</voice>
  <type>32nd</type>
  <stem>down</stem>
  <beam number="1">continue</beam>
  <beam number="2">continue</beam>
  <beam number="3">continue</beam>
</note>
<note>
  <pitch>
    <step>D</step>
    <alter>0</alter>
    <octave>5</octave>
  </pitch>
  <duration>1</duration>
  <voice>1</voice>
  <type>32nd</type>
  <stem>down</stem>
  <beam number="1">continue</beam>
  <beam number="2">continue</beam>
  <beam number="3">continue</beam>
</note>
<note>
  <pitch>
    <step>B</step>
    <alter>0</alter>
    <octave>4</octave>
  </pitch>
  <duration>1</duration>
  <voice>1</voice>
  <type>32nd</type>
  <stem>down</stem>
  <beam number="1">end</beam>
  <beam number="2">end</beam>
  <beam number="3">end</beam>
  <notations>
    <slur type="stop" number="3"/>
  </notations>
</note>
</measure>
<measure number="17">
<note>
  <pitch>
    <step>B</step>
    <alter>0</alter>
    <octave>4</octave>
  </pitch>
  <duration>16</duration>
  <voice>1</voice>
  <type>half</type>
  <stem>down</stem>
</note>
<note>
  <pitch>
    <step>A</step>
    <alter>0</alter>
    <octave>4</octave>
  </pitch>
  <duration>12</duration>
  <voice>1</voice>
  <type>quarter</type>
  <dot/>
  <stem>up</stem>
</note>
<note>
  <pitch>
    <step>D</step>
    <alter>0</alter>
    <octave>5</octave>
  </pitch>
  <duration>4</duration>
  <voice>1</voice>
  <type>eighth</type>
  <stem>down</stem>
</note>
</measure>
<measure number="18">
<note>
  <pitch>
    <step>B</step>
    <alter>0</alter>
    <octave>4</octave>
  </pitch>
  <duration>16</duration>
  <voice>1</voice>
  <type>half</type>
  <stem>up</stem>
</note>
<note>
  <rest/>
  <duration>16</duration>
  <voice>1</voice>
  <type>half</type>
</note>
<note>
  <pitch>
    <step>F</step>
    <alter>1</alter>
    <octave>4</octave>
  </pitch>
  <duration>32</duration>
  <voice>1</voice>
  <type>whole</type>
</note>
<note>
  <chord/>
  <pitch>
    <step>A</step>
    <alter>0</alter>
    <octave>4</octave>
  </pitch>
  <duration>32</duration>
  <voice>1</voice>
  <type>whole</type>
</note>
<note>
  <chord/>
  <pitch>
    <step>C</step>
    <alter>0</alter>
    <octave>5</octave>
  </pitch>
  <duration>32</duration>
  <voice>1</voice>
  <type>whole</type>
</note>
<note>
  <chord/>
  <pitch>
    <step>E</step>
    <alter>0</alter>
    <octave>5</octave>
  </pitch>
  <duration>32</duration>
  <voice>1</voice>
  <type>whole</type>
</note>
</measure>
</part>
</score-partwise>
