<?xml version="1.0" encoding="UTF-8" standalone="no"?>
<!DOCTYPE score-partwise PUBLIC
"-//Recordare//DTD MusicXML 3.0 Partwise//EN"
 "http://www.musicxml.org/dtds/partwise.dtd">
<!-- Generated by ReadScoreLib (C) Organum Ltd and Dolphin Computing -->
<!-- This file is licensed for non-commercial use only -->
<!-- for ReadScoreLib licensing please contact support@playscore.co -->
<score-partwise version="3.0">
<identification>
<encoding>
<software>PlayScore 2</software>
<software>ReadScoreLib (© Organum Consulting and Dolphin Computing Ltd) Version 4.486</software>
<encoding-date>2023-06-13</encoding-date>
<supports element="beam" type="yes" value="yes"/>
<supports element="stem" type="yes" value="yes"/>
<supports element="accidental" type="yes" value="yes"/>
</encoding>
</identification>
<part-list>
 <score-part id="P1">
  <part-name print-object="no">Part 1</part-name>
 </score-part>
</part-list>
<part id="P1">
<measure number="1">
<attributes>
  <divisions>12</divisions>
  <time>
    <beats>2</beats>
    <beat-type>4</beat-type>
  </time>
  <staves>1</staves>
<clef number="1">
    <sign>G</sign>
    <line>2</line>
  </clef>
</attributes>
<attributes>
  <key>
    <fifths>0</fifths>
  </key>
</attributes>
<note>
  <pitch>
    <step>A</step>
    <alter>0</alter>
    <octave>5</octave>
  </pitch>
  <duration>3</duration>
  <voice>1</voice>
  <type>16th</type>
  <stem>down</stem>
  <beam number="1">begin</beam>
  <beam number="2">begin</beam>
</note>
<note>
  <pitch>
    <step>A</step>
    <alter>0</alter>
    <octave>5</octave>
  </pitch>
  <duration>3</duration>
  <voice>1</voice>
  <type>16th</type>
  <stem>down</stem>
  <beam number="1">continue</beam>
  <beam number="2">continue</beam>
</note>
<note>
  <pitch>
    <step>B</step>
    <alter>0</alter>
    <octave>5</octave>
  </pitch>
  <duration>3</duration>
  <voice>1</voice>
  <type>16th</type>
  <stem>down</stem>
  <beam number="1">continue</beam>
  <beam number="2">continue</beam>
</note>
<note>
  <pitch>
    <step>A</step>
    <alter>0</alter>
    <octave>5</octave>
  </pitch>
  <duration>3</duration>
  <voice>1</voice>
  <type>16th</type>
  <stem>down</stem>
  <beam number="1">end</beam>
  <beam number="2">end</beam>
</note>
<note>
  <pitch>
    <step>G</step>
    <alter>0</alter>
    <octave>5</octave>
  </pitch>
  <duration>3</duration>
  <voice>1</voice>
  <type>16th</type>
  <stem>down</stem>
  <beam number="1">begin</beam>
  <beam number="2">begin</beam>
</note>
<note>
  <pitch>
    <step>F</step>
    <alter>0</alter>
    <octave>5</octave>
  </pitch>
  <duration>3</duration>
  <voice>1</voice>
  <type>16th</type>
  <stem>down</stem>
  <beam number="1">end</beam>
  <beam number="2">end</beam>
</note>
</measure>
<measure number="2">
<note>
<rest/>
<duration>12</duration>
<voice>1</voice>
<type>quarter</type>
</note>
<note>
<rest/>
<duration>6</duration>
<voice>1</voice>
<type>eighth</type>
</note>
<note>
<rest/>
<duration>3</duration>
<voice>1</voice>
<type>16th</type>
</note>
<note>
  <pitch>
    <step>B</step>
    <alter>0</alter>
    <octave>4</octave>
  </pitch>
  <duration>3</duration>
  <voice>1</voice>
  <type>16th</type>
  <stem>down</stem>
  <beam number="1">backward hook</beam>
  <beam number="2">backward hook</beam>
</note>
</measure>
<measure number="3">
<note>
  <pitch>
    <step>A</step>
    <alter>0</alter>
    <octave>4</octave>
  </pitch>
  <duration>6</duration>
  <voice>1</voice>
  <type>eighth</type>
  <stem>down</stem>
  <beam number="1">begin</beam>
</note>
<note>
  <pitch>
    <step>B</step>
    <alter>0</alter>
    <octave>4</octave>
  </pitch>
  <duration>6</duration>
  <voice>1</voice>
  <type>eighth</type>
  <stem>down</stem>
  <beam number="1">end</beam>
</note>
<note>
  <pitch>
    <step>C</step>
    <alter>0</alter>
    <octave>5</octave>
  </pitch>
  <duration>6</duration>
  <voice>1</voice>
  <type>eighth</type>
  <stem>down</stem>
  <beam number="1">begin</beam>
  <notations>
<articulations><staccato placement="below"/></articulations>
  </notations>
</note>
<note>
  <pitch>
    <step>B</step>
    <alter>0</alter>
    <octave>4</octave>
  </pitch>
  <duration>6</duration>
  <voice>1</voice>
  <type>eighth</type>
  <stem>down</stem>
  <beam number="1">end</beam>
</note>
</measure>
<measure number="4">
<note>
  <pitch>
    <step>A</step>
    <alter>0</alter>
    <octave>4</octave>
  </pitch>
  <duration>6</duration>
  <voice>1</voice>
  <type>eighth</type>
  <stem>up</stem>
  <beam number="1">begin</beam>
</note>
<note>
  <pitch>
    <step>B</step>
    <alter>0</alter>
    <octave>4</octave>
  </pitch>
  <duration>6</duration>
  <voice>1</voice>
  <type>eighth</type>
  <stem>up</stem>
  <beam number="1">end</beam>
</note>
<note>
  <pitch>
    <step>F</step>
    <alter>-1</alter>
    <octave>4</octave>
  </pitch>
  <duration>6</duration>
  <voice>1</voice>
  <type>eighth</type>
<accidental>flat</accidental>
  <stem>up</stem>
  <beam number="1">begin</beam>
</note>
<note>
  <pitch>
    <step>E</step>
    <alter>0</alter>
    <octave>4</octave>
  </pitch>
  <duration>6</duration>
  <voice>1</voice>
  <type>eighth</type>
  <stem>up</stem>
  <beam number="1">end</beam>
</note>
</measure>
<measure number="5">
<note>
  <pitch>
    <step>D</step>
    <alter>0</alter>
    <octave>5</octave>
  </pitch>
  <duration>6</duration>
  <voice>1</voice>
  <type>eighth</type>
  <stem>down</stem>
  <beam number="1">begin</beam>
</note>
<note>
  <pitch>
    <step>E</step>
    <alter>0</alter>
    <octave>5</octave>
  </pitch>
  <duration>6</duration>
  <voice>1</voice>
  <type>eighth</type>
  <stem>down</stem>
  <beam number="1">end</beam>
</note>
<note>
  <pitch>
    <step>F</step>
    <alter>0</alter>
    <octave>4</octave>
  </pitch>
  <duration>6</duration>
  <voice>1</voice>
  <type>eighth</type>
  <stem>up</stem>
  <beam number="1">begin</beam>
</note>
<note>
  <pitch>
    <step>E</step>
    <alter>0</alter>
    <octave>4</octave>
  </pitch>
  <duration>6</duration>
  <voice>1</voice>
  <type>eighth</type>
  <stem>up</stem>
  <beam number="1">end</beam>
</note>
</measure>
<measure number="6">
<note>
  <pitch>
    <step>D</step>
    <alter>0</alter>
    <octave>5</octave>
  </pitch>
  <duration>6</duration>
  <voice>1</voice>
  <type>eighth</type>
  <stem>down</stem>
  <beam number="1">begin</beam>
</note>
<note>
  <pitch>
    <step>E</step>
    <alter>0</alter>
    <octave>5</octave>
  </pitch>
  <duration>6</duration>
  <voice>1</voice>
  <type>eighth</type>
  <stem>down</stem>
  <beam number="1">end</beam>
</note>
<note>
  <pitch>
    <step>F</step>
    <alter>0</alter>
    <octave>5</octave>
  </pitch>
  <duration>6</duration>
  <voice>1</voice>
  <type>eighth</type>
  <stem>down</stem>
  <beam number="1">begin</beam>
</note>
<note>
  <pitch>
    <step>E</step>
    <alter>0</alter>
    <octave>5</octave>
  </pitch>
  <duration>3</duration>
  <voice>1</voice>
  <type>16th</type>
  <stem>down</stem>
  <beam number="1">continue</beam>
  <beam number="2">begin</beam>
</note>
<note>
  <pitch>
    <step>E</step>
    <alter>0</alter>
    <octave>5</octave>
  </pitch>
  <duration>3</duration>
  <voice>1</voice>
  <type>16th</type>
  <stem>down</stem>
  <beam number="1">end</beam>
  <beam number="2">end</beam>
</note>
</measure>
<measure number="7">
<note>
  <pitch>
    <step>F</step>
    <alter>0</alter>
    <octave>5</octave>
  </pitch>
  <duration>6</duration>
  <voice>1</voice>
  <type>eighth</type>
  <stem>down</stem>
</note>
<note>
  <pitch>
    <step>F</step>
    <alter>0</alter>
    <octave>5</octave>
  </pitch>
  <duration>6</duration>
  <voice>1</voice>
  <type>eighth</type>
  <stem>down</stem>
  <beam number="1">begin</beam>
</note>
<note>
  <pitch>
    <step>F</step>
    <alter>0</alter>
    <octave>5</octave>
  </pitch>
  <duration>6</duration>
  <voice>1</voice>
  <type>eighth</type>
  <stem>down</stem>
  <beam number="1">end</beam>
</note>
<note>
  <rest/>
  <duration>6</duration>
  <voice>1</voice>
  <type>eighth</type>
</note>
</measure>
<measure number="8">
<note>
  <rest/>
  <duration>3</duration>
  <voice>1</voice>
  <type>16th</type>
</note>
<note>
  <pitch>
    <step>F</step>
    <alter>1</alter>
    <octave>4</octave>
  </pitch>
  <duration>3</duration>
  <voice>1</voice>
  <type>16th</type>
<accidental>sharp</accidental>
  <stem>up</stem>
</note>
<note>
  <pitch>
    <step>F</step>
    <alter>1</alter>
    <octave>4</octave>
  </pitch>
  <duration>6</duration>
  <voice>1</voice>
  <type>eighth</type>
  <stem>up</stem>
</note>
<note>
  <pitch>
    <step>F</step>
    <alter>1</alter>
    <octave>4</octave>
  </pitch>
  <duration>6</duration>
  <voice>1</voice>
  <type>eighth</type>
  <stem>up</stem>
  <beam number="1">begin</beam>
</note>
<note>
  <pitch>
    <step>F</step>
    <alter>1</alter>
    <octave>4</octave>
  </pitch>
  <duration>6</duration>
  <voice>1</voice>
  <type>eighth</type>
  <stem>up</stem>
  <beam number="1">end</beam>
</note>
</measure>
<measure number="9">
<note>
  <pitch>
    <step>G</step>
    <alter>0</alter>
    <octave>4</octave>
  </pitch>
  <duration>6</duration>
  <voice>1</voice>
  <type>eighth</type>
  <stem>up</stem>
  <beam number="1">begin</beam>
</note>
<note>
  <pitch>
    <step>F</step>
    <alter>1</alter>
    <octave>4</octave>
  </pitch>
  <duration>6</duration>
  <voice>1</voice>
  <type>eighth</type>
<accidental>sharp</accidental>
  <stem>up</stem>
  <beam number="1">end</beam>
</note>
<note>
  <pitch>
    <step>E</step>
    <alter>0</alter>
    <octave>4</octave>
  </pitch>
  <duration>6</duration>
  <voice>1</voice>
  <type>eighth</type>
  <stem>up</stem>
  <beam number="1">begin</beam>
</note>
<note>
  <pitch>
    <step>F</step>
    <alter>1</alter>
    <octave>4</octave>
  </pitch>
  <duration>6</duration>
  <voice>1</voice>
  <type>eighth</type>
  <stem>up</stem>
  <beam number="1">end</beam>
</note>
</measure>
<measure number="10">
<note>
  <grace/>
  <pitch>
    <step>G</step>
    <alter>0</alter>
    <octave>4</octave>
  </pitch>
  <voice>1</voice>
  <type size="cue">16th</type>
  <stem>up</stem>
  <beam number="1">begin</beam>
  <beam number="2">begin</beam>
</note>
<note>
  <grace/>
  <pitch>
    <step>F</step>
    <alter>1</alter>
    <octave>4</octave>
  </pitch>
  <voice>1</voice>
  <type size="cue">16th</type>
<accidental>sharp</accidental>
  <stem>up</stem>
  <beam number="1">continue</beam>
  <beam number="2">continue</beam>
</note>
<note>
  <grace/>
  <pitch>
    <step>E</step>
    <alter>0</alter>
    <octave>4</octave>
  </pitch>
  <voice>1</voice>
  <type size="cue">16th</type>
  <stem>up</stem>
  <beam number="1">continue</beam>
  <beam number="2">continue</beam>
</note>
<note>
  <grace/>
  <pitch>
    <step>C</step>
    <alter>0</alter>
    <octave>4</octave>
  </pitch>
  <voice>1</voice>
  <type size="cue">16th</type>
  <stem>up</stem>
  <beam number="1">end</beam>
  <beam number="2">end</beam>
</note>
<note>
  <pitch>
    <step>B</step>
    <alter>0</alter>
    <octave>3</octave>
  </pitch>
  <duration>6</duration>
  <voice>1</voice>
  <type>eighth</type>
  <stem>up</stem>
</note>
<note>
  <rest/>
  <duration>6</duration>
  <voice>1</voice>
  <type>eighth</type>
</note>
<note>
  <rest/>
  <duration>12</duration>
  <voice>1</voice>
  <type>quarter</type>
</note>
</measure>
<measure number="11">
<note>
  <pitch>
    <step>A</step>
    <alter>0</alter>
    <octave>4</octave>
  </pitch>
  <duration>3</duration>
  <voice>1</voice>
  <type>16th</type>
  <stem>up</stem>
  <beam number="1">begin</beam>
  <beam number="2">begin</beam>
</note>
<note>
  <pitch>
    <step>A</step>
    <alter>0</alter>
    <octave>4</octave>
  </pitch>
  <duration>3</duration>
  <voice>1</voice>
  <type>16th</type>
  <stem>up</stem>
  <beam number="1">end</beam>
  <beam number="2">end</beam>
</note>
<note>
  <rest/>
  <duration>3</duration>
  <voice>1</voice>
  <type>16th</type>
</note>
<note>
  <pitch>
    <step>B</step>
    <alter>0</alter>
    <octave>4</octave>
  </pitch>
  <duration>3</duration>
  <voice>1</voice>
  <type>16th</type>
  <stem>down</stem>
</note>
<note>
  <pitch>
    <step>C</step>
    <alter>0</alter>
    <octave>5</octave>
  </pitch>
  <duration>3</duration>
  <voice>1</voice>
  <type>16th</type>
  <stem>down</stem>
  <beam number="1">begin</beam>
  <beam number="2">begin</beam>
  <notations>
<articulations><staccato placement="below"/></articulations>
  </notations>
</note>
<note>
  <pitch>
    <step>C</step>
    <alter>0</alter>
    <octave>5</octave>
  </pitch>
  <duration>3</duration>
  <voice>1</voice>
  <type>16th</type>
  <stem>down</stem>
  <beam number="1">end</beam>
  <beam number="2">end</beam>
</note>
<note>
  <rest/>
  <duration>3</duration>
  <voice>1</voice>
  <type>16th</type>
</note>
<note>
  <pitch>
    <step>B</step>
    <alter>0</alter>
    <octave>4</octave>
  </pitch>
  <duration>3</duration>
  <voice>1</voice>
  <type>16th</type>
  <stem>down</stem>
</note>
</measure>
<measure number="12">
<note>
  <pitch>
    <step>E</step>
    <alter>0</alter>
    <octave>5</octave>
  </pitch>
  <duration>3</duration>
  <voice>1</voice>
  <type>16th</type>
  <stem>down</stem>
  <beam number="1">begin</beam>
  <beam number="2">begin</beam>
</note>
<note>
  <pitch>
    <step>E</step>
    <alter>0</alter>
    <octave>5</octave>
  </pitch>
  <duration>3</duration>
  <voice>1</voice>
  <type>16th</type>
  <stem>down</stem>
  <beam number="1">end</beam>
  <beam number="2">end</beam>
</note>
<note>
  <rest/>
  <duration>3</duration>
  <voice>1</voice>
  <type>16th</type>
</note>
<note>
  <pitch>
    <step>B</step>
    <alter>0</alter>
    <octave>4</octave>
  </pitch>
  <duration>3</duration>
  <voice>1</voice>
  <type>16th</type>
  <stem>down</stem>
</note>
<note>
  <grace/>
  <pitch>
    <step>A</step>
    <alter>0</alter>
    <octave>4</octave>
  </pitch>
  <voice>1</voice>
  <type size="cue">16th</type>
  <stem>up</stem>
  <beam number="1">begin</beam>
  <beam number="2">begin</beam>
</note>
<note>
  <grace/>
  <pitch>
    <step>A</step>
    <alter>0</alter>
    <octave>4</octave>
  </pitch>
  <voice>1</voice>
  <type size="cue">16th</type>
  <stem>up</stem>
  <beam number="1">end</beam>
  <beam number="2">end</beam>
  <notations>
<slur type="start" number="1" placement="above" orientation="over"/>
  </notations>
</note>
<note>
  <rest/>
  <duration>3</duration>
  <voice>1</voice>
  <type>16th</type>
</note>
<note>
  <pitch>
    <step>B</step>
    <alter>0</alter>
    <octave>4</octave>
  </pitch>
  <duration>3</duration>
  <voice>1</voice>
  <type>16th</type>
  <stem>down</stem>
  <notations>
    <slur type="stop" number="1"/>
<articulations><tenuto placement="above"/></articulations>
  </notations>
</note>
<note>
  <rest/>
  <duration>6</duration>
  <voice>1</voice>
  <type>eighth</type>
</note>
</measure>
<measure number="13">
<note>
  <rest/>
  <duration>3</duration>
  <voice>1</voice>
  <type>16th</type>
</note>
<note>
  <pitch>
    <step>D</step>
    <alter>0</alter>
    <octave>5</octave>
  </pitch>
  <duration>3</duration>
  <voice>1</voice>
  <type>16th</type>
  <stem>down</stem>
<notations><technical><fingering>2</fingering> </technical> </notations>  <notations>
<articulations><staccato placement="below"/></articulations>
  </notations>
</note>
<note>
  <pitch>
    <step>E</step>
    <alter>0</alter>
    <octave>5</octave>
  </pitch>
  <duration>3</duration>
  <voice>1</voice>
  <type>16th</type>
  <stem>down</stem>
  <beam number="1">begin</beam>
  <beam number="2">begin</beam>
</note>
<note>
  <pitch>
    <step>E</step>
    <alter>0</alter>
    <octave>5</octave>
  </pitch>
  <duration>3</duration>
  <voice>1</voice>
  <type>16th</type>
  <stem>down</stem>
  <beam number="1">end</beam>
  <beam number="2">end</beam>
</note>
<note>
  <pitch>
    <step>F</step>
    <alter>0</alter>
    <octave>5</octave>
  </pitch>
  <duration>3</duration>
  <voice>1</voice>
  <type>16th</type>
<accidental>natural</accidental>
  <stem>down</stem>
  <beam number="1">begin</beam>
  <beam number="2">begin</beam>
<notations><technical><fingering>4</fingering> </technical> </notations>  <notations>
<articulations><staccato placement="below"/></articulations>
  </notations>
</note>
<note>
  <pitch>
    <step>A</step>
    <alter>0</alter>
    <octave>4</octave>
  </pitch>
  <duration>3</duration>
  <voice>1</voice>
  <type>16th</type>
  <stem>down</stem>
  <beam number="1">continue</beam>
  <beam number="2">continue</beam>
<notations><technical><fingering>5</fingering> </technical> </notations></note>
<note>
  <pitch>
    <step>B</step>
    <alter>0</alter>
    <octave>4</octave>
  </pitch>
  <duration>3</duration>
  <voice>1</voice>
  <type>16th</type>
  <stem>down</stem>
  <beam number="1">continue</beam>
  <beam number="2">continue</beam>
<notations><technical><fingering>2</fingering> </technical> </notations></note>
<note>
  <pitch>
    <step>A</step>
    <alter>0</alter>
    <octave>4</octave>
  </pitch>
  <duration>3</duration>
  <voice>1</voice>
  <type>16th</type>
  <stem>down</stem>
  <beam number="1">end</beam>
  <beam number="2">end</beam>
</note>
<barline location="right"><bar-style>light-heavy</bar-style></barline>
</measure>
<measure number="14">
<attributes>
  <time>
    <beats>3</beats>
    <beat-type>8</beat-type>
  </time>
</attributes>
<note>
  <pitch>
    <step>B</step>
    <alter>0</alter>
    <octave>3</octave>
  </pitch>
  <duration>6</duration>
  <voice>1</voice>
  <type>eighth</type>
  <stem>up</stem>
<notations><technical><fingering>2</fingering> </technical> </notations></note>
<note>
  <pitch>
    <step>E</step>
    <alter>0</alter>
    <octave>5</octave>
  </pitch>
  <duration>3</duration>
  <voice>1</voice>
  <type>16th</type>
  <stem>down</stem>
  <beam number="1">begin</beam>
  <beam number="2">begin</beam>
  <notations>
<articulations><staccato placement="below"/></articulations>
  </notations>
</note>
<note>
  <pitch>
    <step>C</step>
    <alter>0</alter>
    <octave>5</octave>
  </pitch>
  <duration>3</duration>
  <voice>1</voice>
  <type>16th</type>
  <stem>down</stem>
  <beam number="1">continue</beam>
  <beam number="2">continue</beam>
<notations><technical><fingering>1</fingering> </technical> </notations>  <notations>
<articulations><staccato placement="below"/></articulations>
  </notations>
</note>
<note>
  <pitch>
    <step>B</step>
    <alter>0</alter>
    <octave>4</octave>
  </pitch>
  <duration>3</duration>
  <voice>1</voice>
  <type>16th</type>
  <stem>down</stem>
  <beam number="1">continue</beam>
  <beam number="2">continue</beam>
<notations><technical><fingering>2</fingering> </technical> </notations></note>
<note>
  <pitch>
    <step>A</step>
    <alter>0</alter>
    <octave>4</octave>
  </pitch>
  <duration>3</duration>
  <voice>1</voice>
  <type>16th</type>
  <stem>down</stem>
  <beam number="1">end</beam>
  <beam number="2">end</beam>
<notations><technical><fingering>0</fingering> </technical> </notations></note>
<barline location="right"><bar-style>light-heavy</bar-style></barline>
</measure>
<measure number="15">
<attributes>
  <time>
    <beats>2</beats>
    <beat-type>4</beat-type>
  </time>
</attributes>
<note>
  <pitch>
    <step>F</step>
    <alter>0</alter>
    <octave>4</octave>
  </pitch>
  <duration>3</duration>
  <voice>1</voice>
  <type>16th</type>
  <stem>up</stem>
  <beam number="1">begin</beam>
  <beam number="2">begin</beam>
</note>
<note>
  <pitch>
    <step>F</step>
    <alter>0</alter>
    <octave>4</octave>
  </pitch>
  <duration>3</duration>
  <voice>1</voice>
  <type>16th</type>
  <stem>up</stem>
  <beam number="1">continue</beam>
  <beam number="2">continue</beam>
<notations><technical><fingering>4</fingering> </technical> </notations></note>
<note>
  <pitch>
    <step>F</step>
    <alter>0</alter>
    <octave>4</octave>
  </pitch>
  <duration>3</duration>
  <voice>1</voice>
  <type>16th</type>
  <stem>up</stem>
  <beam number="1">continue</beam>
  <beam number="2">continue</beam>
<notations><technical><fingering>4</fingering> </technical> </notations></note>
<note>
  <pitch>
    <step>E</step>
    <alter>0</alter>
    <octave>4</octave>
  </pitch>
  <duration>3</duration>
  <voice>1</voice>
  <type>16th</type>
  <stem>up</stem>
  <beam number="1">end</beam>
  <beam number="2">end</beam>
</note>
<note>
  <pitch>
    <step>E</step>
    <alter>0</alter>
    <octave>4</octave>
  </pitch>
  <duration>6</duration>
  <voice>1</voice>
  <type>eighth</type>
  <stem>up</stem>
  <beam number="1">begin</beam>
<notations><technical><fingering>3</fingering> </technical> </notations></note>
<note>
  <pitch>
    <step>C</step>
    <alter>0</alter>
    <octave>4</octave>
  </pitch>
  <duration>3</duration>
  <voice>1</voice>
  <type>16th</type>
  <stem>up</stem>
  <beam number="1">continue</beam>
  <beam number="2">begin</beam>
<notations><technical><fingering>1</fingering> </technical> </notations></note>
<note>
  <pitch>
    <step>B</step>
    <alter>0</alter>
    <octave>3</octave>
  </pitch>
  <duration>3</duration>
  <voice>1</voice>
  <type>16th</type>
  <stem>up</stem>
  <beam number="1">end</beam>
  <beam number="2">end</beam>
<notations><technical><fingering>2</fingering> </technical> </notations>  <notations>
<slur type="start" number="2" placement="below" orientation="under"/>
<slur type="start" number="3" placement="below" orientation="under"/>
<slur type="start" number="4" placement="below" orientation="under"/>
<slur type="start" number="5" placement="below" orientation="under"/>
  </notations>
</note>
</measure>
<measure number="16">
<note>
  <rest/>
  <duration>3</duration>
  <voice>1</voice>
  <type>16th</type>
</note>
<note>
  <pitch>
    <step>C</step>
    <alter>0</alter>
    <octave>5</octave>
  </pitch>
  <duration>3</duration>
  <voice>1</voice>
  <type>16th</type>
  <stem>down</stem>
<notations><technical><fingering>1</fingering> </technical> </notations>  <notations>
<articulations><staccato placement="below"/></articulations>
  </notations>
</note>
<note>
  <pitch>
    <step>B</step>
    <alter>0</alter>
    <octave>4</octave>
  </pitch>
  <duration>6</duration>
  <voice>1</voice>
  <type>eighth</type>
  <stem>down</stem>
<notations><technical><fingering>2</fingering> </technical> </notations>  <notations>
<slur type="start" number="1" placement="below" orientation="under"/>
  </notations>
</note>
<note>
  <rest/>
  <duration>3</duration>
  <voice>1</voice>
  <type>16th</type>
</note>
<note>
  <pitch>
    <step>C</step>
    <alter>0</alter>
    <octave>5</octave>
  </pitch>
  <duration>3</duration>
  <voice>1</voice>
  <type>16th</type>
  <stem>down</stem>
<notations><technical><fingering>1</fingering> </technical> </notations>  <notations>
    <slur type="stop" number="4"/>
    <slur type="stop" number="1"/>
<articulations><staccato placement="below"/></articulations>
  </notations>
</note>
<note>
  <pitch>
    <step>B</step>
    <alter>0</alter>
    <octave>4</octave>
  </pitch>
  <duration>6</duration>
    <tie type="start"/>
  <voice>1</voice>
  <type>eighth</type>
  <stem>down</stem>
<notations><technical><fingering>2</fingering> </technical> </notations>  <notations>
<tied type="start" number="1" orientation="under"/>
  </notations>
</note>
</measure>
<measure number="17">
<note>
  <pitch>
    <step>B</step>
    <alter>0</alter>
    <octave>4</octave>
  </pitch>
  <duration>3</duration>
    <tie type="stop"/>
  <voice>1</voice>
  <type>16th</type>
  <stem>down</stem>
  <beam number="1">begin</beam>
  <beam number="2">begin</beam>
<notations><technical><fingering>2</fingering> </technical> </notations>  <notations>
    <tied type="stop" number="1"/>
  </notations>
</note>
<note>
  <pitch>
    <step>B</step>
    <alter>0</alter>
    <octave>4</octave>
  </pitch>
  <duration>3</duration>
  <voice>1</voice>
  <type>16th</type>
  <stem>down</stem>
  <beam number="1">continue</beam>
  <beam number="2">end</beam>
<notations><technical><fingering>2</fingering> </technical> </notations></note>
<note>
  <pitch>
    <step>B</step>
    <alter>0</alter>
    <octave>4</octave>
  </pitch>
  <duration>6</duration>
  <voice>1</voice>
  <type>eighth</type>
  <stem>down</stem>
  <beam number="1">end</beam>
<notations><technical><fingering>2</fingering> </technical> </notations></note>
<note>
  <pitch>
    <step>B</step>
    <alter>0</alter>
    <octave>4</octave>
  </pitch>
  <duration>6</duration>
  <voice>1</voice>
  <type>eighth</type>
  <stem>down</stem>
  <beam number="1">begin</beam>
<notations><technical><fingering>2</fingering> </technical> </notations></note>
<note>
  <pitch>
    <step>B</step>
    <alter>0</alter>
    <octave>4</octave>
  </pitch>
  <duration>6</duration>
  <voice>1</voice>
  <type>eighth</type>
  <stem>down</stem>
  <beam number="1">end</beam>
<notations><technical><fingering>2</fingering> </technical> </notations></note>
</measure>
<measure number="18">
<barline location="left"><bar-style>heavy-light</bar-style>
<repeat direction="forward"/>
</barline>
<note>
<cue/>
  <pitch>
    <step>B</step>
    <alter>0</alter>
    <octave>4</octave>
  </pitch>
  <duration>6</duration>
  <voice>1</voice>
  <type size="cue">eighth</type>
  <stem>down</stem>
  <beam number="1">begin</beam>
<notations><technical><fingering>2</fingering> </technical> </notations></note>
<note>
<cue/>
  <pitch>
    <step>B</step>
    <alter>0</alter>
    <octave>4</octave>
  </pitch>
  <duration>6</duration>
  <voice>1</voice>
  <type size="cue">eighth</type>
  <stem>down</stem>
  <beam number="1">continue</beam>
<notations><technical><fingering>2</fingering> </technical> </notations></note>
<note>
<cue/>
  <pitch>
    <step>B</step>
    <alter>0</alter>
    <octave>4</octave>
  </pitch>
  <duration>9</duration>
  <voice>1</voice>
  <type size="cue">eighth</type>
  <dot/>
  <stem>down</stem>
  <beam number="1">end</beam>
<notations><technical><fingering>2</fingering> </technical> </notations></note>
<barline location="right"><bar-style>light-heavy</bar-style>
<repeat direction="backward"/></barline>
</measure>
</part>
</score-partwise>
