<?xml version="1.0" encoding="UTF-8" standalone="no"?>
<!DOCTYPE score-partwise PUBLIC
"-//Recordare//DTD MusicXML 3.0 Partwise//EN"
 "http://www.musicxml.org/dtds/partwise.dtd">
<!-- Generated by ReadScoreLib (C) Organum Ltd and Dolphin Computing -->
<!-- This file is licensed for non-commercial use only -->
<!-- for ReadScoreLib licensing please contact support@playscore.co -->
<score-partwise version="3.0">
<identification>
<encoding>
<software>PlayScore 2</software>
<software>ReadScoreLib (© Organum Consulting and Dolphin Computing Ltd) Version 4.486</software>
<encoding-date>2023-06-13</encoding-date>
<supports element="beam" type="yes" value="yes"/>
<supports element="stem" type="yes" value="yes"/>
<supports element="accidental" type="yes" value="yes"/>
</encoding>
</identification>
<part-list>
 <score-part id="P1">
  <part-name print-object="no">Part 1</part-name>
 </score-part>
</part-list>
<part id="P1">
<measure number="1">
<attributes>
  <divisions>12</divisions>
  <time>
    <beats>2</beats>
    <beat-type>4</beat-type>
  </time>
  <staves>1</staves>
<clef number="1">
    <sign>G</sign>
    <line>2</line>
  </clef>
</attributes>
<attributes>
  <key>
    <fifths>0</fifths>
  </key>
</attributes>
<note>
  <pitch>
    <step>D</step>
    <alter>0</alter>
    <octave>5</octave>
  </pitch>
  <duration>6</duration>
  <voice>1</voice>
  <type>eighth</type>
  <stem>down</stem>
  <beam number="1">begin</beam>
</note>
<note>
  <pitch>
    <step>E</step>
    <alter>0</alter>
    <octave>5</octave>
  </pitch>
  <duration>3</duration>
  <voice>1</voice>
  <type>16th</type>
  <stem>down</stem>
  <beam number="1">continue</beam>
  <beam number="2">begin</beam>
</note>
<note>
  <pitch>
    <step>E</step>
    <alter>0</alter>
    <octave>5</octave>
  </pitch>
  <duration>3</duration>
  <voice>1</voice>
  <type>16th</type>
  <stem>down</stem>
  <beam number="1">end</beam>
  <beam number="2">end</beam>
</note>
<note>
  <pitch>
    <step>A</step>
    <alter>0</alter>
    <octave>4</octave>
  </pitch>
  <duration>6</duration>
  <voice>1</voice>
  <type>eighth</type>
  <stem>up</stem>
  <beam number="1">begin</beam>
  <notations>
<slur type="start" number="1" placement="below" orientation="under"/>
  </notations>
</note>
<note>
  <pitch>
    <step>B</step>
    <alter>0</alter>
    <octave>4</octave>
  </pitch>
  <duration>6</duration>
  <voice>1</voice>
  <type>eighth</type>
  <stem>up</stem>
  <beam number="1">end</beam>
  <notations>
    <slur type="stop" number="1"/>
  </notations>
</note>
</measure>
<measure number="2">
<note>
  <pitch>
    <step>E</step>
    <alter>0</alter>
    <octave>4</octave>
  </pitch>
  <duration>3</duration>
  <voice>1</voice>
  <type>16th</type>
  <stem>down</stem>
  <beam number="1">begin</beam>
  <beam number="2">begin</beam>
  <notations>
<articulations><staccato placement="below"/></articulations>
  </notations>
</note>
<note>
  <pitch>
    <step>C</step>
    <alter>0</alter>
    <octave>5</octave>
  </pitch>
  <duration>3</duration>
  <voice>1</voice>
  <type>16th</type>
  <stem>down</stem>
  <beam number="1">continue</beam>
  <beam number="2">continue</beam>
  <notations>
<articulations><staccato placement="below"/></articulations>
  </notations>
</note>
<note>
  <pitch>
    <step>C</step>
    <alter>0</alter>
    <octave>5</octave>
  </pitch>
  <duration>3</duration>
  <voice>1</voice>
  <type>16th</type>
  <stem>down</stem>
  <beam number="1">continue</beam>
  <beam number="2">continue</beam>
  <notations>
<articulations><staccato placement="below"/></articulations>
  </notations>
</note>
<note>
  <pitch>
    <step>C</step>
    <alter>0</alter>
    <octave>5</octave>
  </pitch>
  <duration>3</duration>
  <voice>1</voice>
  <type>16th</type>
  <stem>down</stem>
  <beam number="1">end</beam>
  <beam number="2">end</beam>
  <notations>
<articulations><staccato placement="below"/></articulations>
  </notations>
</note>
<note>
  <rest/>
  <duration>12</duration>
  <voice>1</voice>
  <type>quarter</type>
</note>
</measure>
<measure number="3">
<note>
  <pitch>
    <step>A</step>
    <alter>0</alter>
    <octave>4</octave>
  </pitch>
  <duration>6</duration>
  <voice>1</voice>
  <type>eighth</type>
  <stem>up</stem>
  <beam number="1">begin</beam>
</note>
<note>
  <pitch>
    <step>F</step>
    <alter>0</alter>
    <octave>4</octave>
  </pitch>
  <duration>6</duration>
  <voice>1</voice>
  <type>eighth</type>
  <stem>up</stem>
  <beam number="1">continue</beam>
</note>
<note>
  <pitch>
    <step>A</step>
    <alter>0</alter>
    <octave>4</octave>
  </pitch>
  <duration>6</duration>
  <voice>1</voice>
  <type>eighth</type>
  <stem>up</stem>
  <beam number="1">continue</beam>
</note>
<note>
  <pitch>
    <step>B</step>
    <alter>0</alter>
    <octave>4</octave>
  </pitch>
  <duration>6</duration>
  <voice>1</voice>
  <type>eighth</type>
  <stem>up</stem>
  <beam number="1">end</beam>
</note>
</measure>
<measure number="4">
<note>
  <pitch>
    <step>E</step>
    <alter>0</alter>
    <octave>4</octave>
  </pitch>
  <duration>3</duration>
  <voice>1</voice>
  <type>16th</type>
  <stem>down</stem>
  <beam number="1">begin</beam>
  <beam number="2">begin</beam>
  <notations>
<articulations><staccato placement="below"/></articulations>
  </notations>
</note>
<note>
  <pitch>
    <step>C</step>
    <alter>0</alter>
    <octave>5</octave>
  </pitch>
  <duration>3</duration>
  <voice>1</voice>
  <type>16th</type>
  <stem>down</stem>
  <beam number="1">continue</beam>
  <beam number="2">continue</beam>
  <notations>
<articulations><staccato placement="below"/></articulations>
  </notations>
</note>
<note>
  <pitch>
    <step>C</step>
    <alter>0</alter>
    <octave>5</octave>
  </pitch>
  <duration>3</duration>
  <voice>1</voice>
  <type>16th</type>
  <stem>down</stem>
  <beam number="1">continue</beam>
  <beam number="2">continue</beam>
  <notations>
<articulations><staccato placement="below"/></articulations>
  </notations>
</note>
<note>
  <pitch>
    <step>C</step>
    <alter>0</alter>
    <octave>5</octave>
  </pitch>
  <duration>3</duration>
  <voice>1</voice>
  <type>16th</type>
  <stem>down</stem>
  <beam number="1">end</beam>
  <beam number="2">end</beam>
  <notations>
<articulations><staccato placement="below"/></articulations>
  </notations>
</note>
<note>
  <pitch>
    <step>B</step>
    <alter>0</alter>
    <octave>4</octave>
  </pitch>
  <duration>6</duration>
  <voice>1</voice>
  <type>eighth</type>
  <stem>down</stem>
  <beam number="1">begin</beam>
</note>
<note>
  <pitch>
    <step>C</step>
    <alter>0</alter>
    <octave>5</octave>
  </pitch>
  <duration>6</duration>
  <voice>1</voice>
  <type>eighth</type>
  <stem>down</stem>
  <beam number="1">end</beam>
  <notations>
<articulations><staccato placement="below"/></articulations>
  </notations>
</note>
</measure>
<measure number="5">
<note>
  <pitch>
    <step>F</step>
    <alter>1</alter>
    <octave>4</octave>
  </pitch>
  <duration>6</duration>
  <voice>1</voice>
  <type>eighth</type>
<accidental>sharp</accidental>
  <stem>up</stem>
  <beam number="1">begin</beam>
</note>
<note>
  <pitch>
    <step>F</step>
    <alter>1</alter>
    <octave>4</octave>
  </pitch>
  <duration>6</duration>
  <voice>1</voice>
  <type>eighth</type>
  <stem>up</stem>
  <beam number="1">end</beam>
</note>
<note>
  <rest/>
  <duration>12</duration>
  <voice>1</voice>
  <type>quarter</type>
</note>
</measure>
<measure number="6">
<note>
  <pitch>
    <step>F</step>
    <alter>1</alter>
    <octave>4</octave>
  </pitch>
  <duration>6</duration>
  <voice>1</voice>
  <type>eighth</type>
<accidental>sharp</accidental>
  <stem>up</stem>
  <beam number="1">begin</beam>
</note>
<note>
  <pitch>
    <step>F</step>
    <alter>1</alter>
    <octave>4</octave>
  </pitch>
  <duration>6</duration>
  <voice>1</voice>
  <type>eighth</type>
  <stem>up</stem>
  <beam number="1">end</beam>
</note>
<note>
  <rest/>
  <duration>12</duration>
  <voice>1</voice>
  <type>quarter</type>
</note>
</measure>
<measure number="7">
<note>
  <pitch>
    <step>F</step>
    <alter>1</alter>
    <octave>4</octave>
  </pitch>
  <duration>6</duration>
  <voice>1</voice>
  <type>eighth</type>
<accidental>sharp</accidental>
  <stem>up</stem>
</note>
<direction placement="above"><direction-type><dynamics>
<p/> 
</dynamics>
</direction-type>
<staff>1</staff>
</direction>
<note>
  <grace/>
  <pitch>
    <step>F</step>
    <alter>0</alter>
    <octave>5</octave>
  </pitch>
  <voice>1</voice>
  <type size="cue">eighth</type>
  <stem>up</stem>
</note>
<note>
  <rest/>
  <duration>6</duration>
  <voice>1</voice>
  <type>eighth</type>
</note>
<note>
  <pitch>
    <step>F</step>
    <alter>1</alter>
    <octave>4</octave>
  </pitch>
  <duration>4</duration>
  <voice>1</voice>
  <type>eighth</type>
  <time-modification>
    <actual-notes>3</actual-notes>
    <normal-notes>2</normal-notes>
  </time-modification>
  <stem>up</stem>
  <notations>
    <tuplet type="start" bracket="yes">
<tuplet-actual>
<tuplet-number>3</tuplet-number>
<tuplet-type>eighth</tuplet-type>
</tuplet-actual>
<tuplet-normal>
<tuplet-number>2</tuplet-number>
<tuplet-type>eighth</tuplet-type>
</tuplet-normal>
</tuplet>
  </notations>
</note>
<note>
  <pitch>
    <step>F</step>
    <alter>0</alter>
    <octave>5</octave>
  </pitch>
  <duration>4</duration>
  <voice>1</voice>
  <type size="cue">eighth</type>
  <time-modification>
    <actual-notes>3</actual-notes>
    <normal-notes>2</normal-notes>
  </time-modification>
  <stem>up</stem>
</note>
<note>
  <rest/>
  <duration>4</duration>
  <voice>1</voice>
  <type>eighth</type>
  <time-modification>
    <actual-notes>3</actual-notes>
    <normal-notes>2</normal-notes>
  </time-modification>
  <notations>
    <tuplet type="stop"/>
  </notations>
</note>
</measure>
<measure number="8">
<note>
  <pitch>
    <step>F</step>
    <alter>1</alter>
    <octave>4</octave>
  </pitch>
  <duration>6</duration>
  <voice>1</voice>
  <type>eighth</type>
<accidental>sharp</accidental>
  <stem>up</stem>
</note>
<note>
  <grace/>
  <pitch>
    <step>F</step>
    <alter>0</alter>
    <octave>5</octave>
  </pitch>
  <voice>1</voice>
  <type size="cue">eighth</type>
  <stem>up</stem>
</note>
<note>
  <rest/>
  <duration>6</duration>
  <voice>1</voice>
  <type>eighth</type>
</note>
<note>
  <pitch>
    <step>F</step>
    <alter>1</alter>
    <octave>4</octave>
  </pitch>
  <duration>6</duration>
  <voice>1</voice>
  <type>eighth</type>
  <stem>up</stem>
  <beam number="1">begin</beam>
</note>
<note>
  <pitch>
    <step>F</step>
    <alter>1</alter>
    <octave>4</octave>
  </pitch>
  <duration>6</duration>
  <voice>1</voice>
  <type>eighth</type>
  <stem>up</stem>
  <beam number="1">end</beam>
</note>
</measure>
<measure number="9">
<note>
  <rest/>
  <duration>6</duration>
  <voice>1</voice>
  <type>eighth</type>
</note>
<note>
  <pitch>
    <step>G</step>
    <alter>0</alter>
    <octave>4</octave>
  </pitch>
  <duration>3</duration>
  <voice>1</voice>
  <type>16th</type>
  <stem>up</stem>
  <beam number="1">begin</beam>
  <beam number="2">begin</beam>
</note>
<note>
  <pitch>
    <step>G</step>
    <alter>0</alter>
    <octave>4</octave>
  </pitch>
  <duration>3</duration>
  <voice>1</voice>
  <type>16th</type>
  <stem>up</stem>
  <beam number="1">end</beam>
  <beam number="2">end</beam>
</note>
<note>
  <pitch>
    <step>G</step>
    <alter>0</alter>
    <octave>4</octave>
  </pitch>
  <duration>6</duration>
  <voice>1</voice>
  <type>eighth</type>
  <stem>up</stem>
  <beam number="1">begin</beam>
</note>
<note>
  <pitch>
    <step>G</step>
    <alter>0</alter>
    <octave>4</octave>
  </pitch>
  <duration>6</duration>
  <voice>1</voice>
  <type>eighth</type>
  <stem>up</stem>
  <beam number="1">end</beam>
</note>
</measure>
<measure number="10">
<note>
  <pitch>
    <step>G</step>
    <alter>0</alter>
    <octave>4</octave>
  </pitch>
  <duration>6</duration>
  <voice>1</voice>
  <type>eighth</type>
  <stem>up</stem>
  <beam number="1">begin</beam>
</note>
<note>
  <pitch>
    <step>B</step>
    <alter>0</alter>
    <octave>4</octave>
  </pitch>
  <duration>6</duration>
  <voice>1</voice>
  <type>eighth</type>
  <stem>up</stem>
  <beam number="1">continue</beam>
</note>
<note>
  <pitch>
    <step>G</step>
    <alter>0</alter>
    <octave>4</octave>
  </pitch>
  <duration>6</duration>
  <voice>1</voice>
  <type>eighth</type>
  <stem>up</stem>
  <beam number="1">continue</beam>
</note>
<note>
  <pitch>
    <step>F</step>
    <alter>1</alter>
    <octave>4</octave>
  </pitch>
  <duration>6</duration>
  <voice>1</voice>
  <type>eighth</type>
<accidental>sharp</accidental>
  <stem>up</stem>
  <beam number="1">end</beam>
</note>
</measure>
<measure number="11">
<note>
  <pitch>
    <step>E</step>
    <alter>0</alter>
    <octave>4</octave>
  </pitch>
  <duration>6</duration>
  <voice>1</voice>
  <type>eighth</type>
  <stem>up</stem>
  <beam number="1">begin</beam>
</note>
<note>
  <pitch>
    <step>F</step>
    <alter>1</alter>
    <octave>4</octave>
  </pitch>
  <duration>6</duration>
  <voice>1</voice>
  <type>eighth</type>
<accidental>sharp</accidental>
  <stem>up</stem>
  <beam number="1">continue</beam>
</note>
<note>
  <pitch>
    <step>G</step>
    <alter>0</alter>
    <octave>4</octave>
  </pitch>
  <duration>6</duration>
  <voice>1</voice>
  <type>eighth</type>
  <stem>up</stem>
  <beam number="1">continue</beam>
</note>
<note>
  <pitch>
    <step>F</step>
    <alter>1</alter>
    <octave>4</octave>
  </pitch>
  <duration>6</duration>
  <voice>1</voice>
  <type>eighth</type>
  <stem>up</stem>
  <beam number="1">end</beam>
</note>
</measure>
<measure number="12">
<note>
  <pitch>
    <step>E</step>
    <alter>0</alter>
    <octave>4</octave>
  </pitch>
  <duration>6</duration>
  <voice>1</voice>
  <type>eighth</type>
  <stem>up</stem>
  <beam number="1">begin</beam>
</note>
<note>
  <pitch>
    <step>F</step>
    <alter>1</alter>
    <octave>4</octave>
  </pitch>
  <duration>3</duration>
  <voice>1</voice>
  <type>16th</type>
<accidental>sharp</accidental>
  <stem>up</stem>
  <beam number="1">continue</beam>
  <beam number="2">begin</beam>
</note>
<note>
  <pitch>
    <step>E</step>
    <alter>0</alter>
    <octave>4</octave>
  </pitch>
  <duration>3</duration>
  <voice>1</voice>
  <type>16th</type>
  <stem>up</stem>
  <beam number="1">end</beam>
  <beam number="2">end</beam>
</note>
<note>
  <pitch>
    <step>C</step>
    <alter>0</alter>
    <octave>4</octave>
  </pitch>
  <duration>6</duration>
  <voice>1</voice>
  <type>eighth</type>
  <stem>up</stem>
  <beam number="1">begin</beam>
</note>
<note>
  <pitch>
    <step>B</step>
    <alter>0</alter>
    <octave>3</octave>
  </pitch>
  <duration>6</duration>
  <voice>1</voice>
  <type>eighth</type>
  <stem>up</stem>
  <beam number="1">end</beam>
</note>
</measure>
<measure number="13">
<note>
  <pitch>
    <step>D</step>
    <alter>0</alter>
    <octave>4</octave>
  </pitch>
  <duration>6</duration>
  <voice>1</voice>
  <type>eighth</type>
  <stem>up</stem>
  <beam number="1">begin</beam>
</note>
<note>
  <pitch>
    <step>E</step>
    <alter>0</alter>
    <octave>4</octave>
  </pitch>
  <duration>6</duration>
  <voice>1</voice>
  <type>eighth</type>
  <stem>up</stem>
  <beam number="1">end</beam>
</note>
<note>
  <pitch>
    <step>B</step>
    <alter>0</alter>
    <octave>3</octave>
  </pitch>
  <duration>3</duration>
  <voice>1</voice>
  <type>16th</type>
  <stem>up</stem>
  <beam number="1">begin</beam>
  <beam number="2">begin</beam>
</note>
<note>
  <pitch>
    <step>F</step>
    <alter>0</alter>
    <octave>4</octave>
  </pitch>
  <duration>3</duration>
  <voice>1</voice>
  <type>16th</type>
<accidental>natural</accidental>
  <stem>up</stem>
  <beam number="1">continue</beam>
  <beam number="2">continue</beam>
</note>
<note>
  <pitch>
    <step>F</step>
    <alter>0</alter>
    <octave>4</octave>
  </pitch>
  <duration>3</duration>
  <voice>1</voice>
  <type>16th</type>
  <stem>up</stem>
  <beam number="1">continue</beam>
  <beam number="2">continue</beam>
</note>
<note>
  <pitch>
    <step>E</step>
    <alter>0</alter>
    <octave>4</octave>
  </pitch>
  <duration>3</duration>
  <voice>1</voice>
  <type>16th</type>
  <stem>up</stem>
  <beam number="1">end</beam>
  <beam number="2">end</beam>
</note>
</measure>
<measure number="14">
<note>
  <pitch>
    <step>D</step>
    <alter>0</alter>
    <octave>4</octave>
  </pitch>
  <duration>6</duration>
  <voice>1</voice>
  <type>eighth</type>
  <stem>up</stem>
  <beam number="1">begin</beam>
</note>
<note>
  <pitch>
    <step>E</step>
    <alter>0</alter>
    <octave>4</octave>
  </pitch>
  <duration>6</duration>
  <voice>1</voice>
  <type>eighth</type>
  <stem>up</stem>
  <beam number="1">end</beam>
</note>
<note>
  <rest/>
  <duration>12</duration>
  <voice>1</voice>
  <type>quarter</type>
</note>
</measure>
<measure number="15">
<note>
  <pitch>
    <step>A</step>
    <alter>0</alter>
    <octave>4</octave>
  </pitch>
  <duration>3</duration>
  <voice>1</voice>
  <type>16th</type>
  <stem>up</stem>
  <beam number="1">begin</beam>
  <beam number="2">begin</beam>
</note>
<note>
  <pitch>
    <step>A</step>
    <alter>0</alter>
    <octave>4</octave>
  </pitch>
  <duration>3</duration>
  <voice>1</voice>
  <type>16th</type>
  <stem>up</stem>
  <beam number="1">continue</beam>
  <beam number="2">end</beam>
  <notations>
<articulations><tenuto placement="above"/></articulations>
  </notations>
</note>
<note>
  <pitch>
    <step>A</step>
    <alter>0</alter>
    <octave>4</octave>
  </pitch>
  <duration>6</duration>
  <voice>1</voice>
  <type>eighth</type>
  <stem>up</stem>
  <beam number="1">end</beam>
  <notations>
<articulations><tenuto placement="above"/></articulations>
  </notations>
</note>
<note>
  <pitch>
    <step>B</step>
    <alter>0</alter>
    <octave>4</octave>
  </pitch>
  <duration>3</duration>
  <voice>1</voice>
  <type>16th</type>
  <stem>up</stem>
  <beam number="1">begin</beam>
  <beam number="2">begin</beam>
</note>
<note>
  <pitch>
    <step>B</step>
    <alter>0</alter>
    <octave>4</octave>
  </pitch>
  <duration>3</duration>
  <voice>1</voice>
  <type>16th</type>
  <stem>up</stem>
  <beam number="1">continue</beam>
  <beam number="2">end</beam>
</note>
<note>
  <pitch>
    <step>B</step>
    <alter>0</alter>
    <octave>4</octave>
  </pitch>
  <duration>6</duration>
  <voice>1</voice>
  <type>eighth</type>
  <stem>up</stem>
  <beam number="1">end</beam>
</note>
</measure>
<measure number="16">
<note>
  <pitch>
    <step>A</step>
    <alter>0</alter>
    <octave>4</octave>
  </pitch>
  <duration>6</duration>
  <voice>1</voice>
  <type>eighth</type>
  <stem>up</stem>
  <beam number="1">begin</beam>
</note>
<note>
  <pitch>
    <step>B</step>
    <alter>0</alter>
    <octave>3</octave>
  </pitch>
  <duration>3</duration>
  <voice>1</voice>
  <type>16th</type>
  <stem>up</stem>
  <beam number="1">continue</beam>
  <beam number="2">begin</beam>
</note>
<note>
  <pitch>
    <step>F</step>
    <alter>0</alter>
    <octave>4</octave>
  </pitch>
  <duration>3</duration>
  <voice>1</voice>
  <type>16th</type>
  <stem>up</stem>
  <beam number="1">end</beam>
  <beam number="2">end</beam>
</note>
<note>
  <pitch>
    <step>F</step>
    <alter>0</alter>
    <octave>4</octave>
  </pitch>
  <duration>6</duration>
  <voice>1</voice>
  <type>eighth</type>
  <stem>up</stem>
  <beam number="1">begin</beam>
  <notations>
<slur type="start" number="2" placement="below" orientation="under"/>
  </notations>
</note>
<note>
  <pitch>
    <step>E</step>
    <alter>0</alter>
    <octave>4</octave>
  </pitch>
  <duration>6</duration>
  <voice>1</voice>
  <type>eighth</type>
  <stem>up</stem>
  <beam number="1">end</beam>
  <notations>
    <slur type="stop" number="2"/>
  </notations>
</note>
</measure>
<measure number="17">
<note>
  <pitch>
    <step>A</step>
    <alter>0</alter>
    <octave>4</octave>
  </pitch>
  <duration>3</duration>
  <voice>1</voice>
  <type>16th</type>
  <stem>up</stem>
  <beam number="1">begin</beam>
  <beam number="2">begin</beam>
</note>
<note>
  <pitch>
    <step>A</step>
    <alter>0</alter>
    <octave>4</octave>
  </pitch>
  <duration>3</duration>
  <voice>1</voice>
  <type>16th</type>
  <stem>up</stem>
  <beam number="1">continue</beam>
  <beam number="2">end</beam>
</note>
<note>
  <pitch>
    <step>A</step>
    <alter>0</alter>
    <octave>4</octave>
  </pitch>
  <duration>6</duration>
  <voice>1</voice>
  <type>eighth</type>
  <stem>up</stem>
  <beam number="1">end</beam>
</note>
<note>
  <pitch>
    <step>B</step>
    <alter>0</alter>
    <octave>4</octave>
  </pitch>
  <duration>3</duration>
    <tie type="start"/>
  <voice>1</voice>
  <type>16th</type>
  <stem>down</stem>
  <beam number="1">begin</beam>
  <beam number="2">begin</beam>
  <notations>
<tied type="start" number="1" orientation="under"/>
  </notations>
</note>
<note>
  <pitch>
    <step>B</step>
    <alter>0</alter>
    <octave>4</octave>
  </pitch>
  <duration>3</duration>
    <tie type="stop"/>
  <voice>1</voice>
  <type>16th</type>
  <stem>down</stem>
  <beam number="1">continue</beam>
  <beam number="2">end</beam>
  <notations>
    <tied type="stop" number="1"/>
  </notations>
</note>
<note>
  <pitch>
    <step>B</step>
    <alter>0</alter>
    <octave>4</octave>
  </pitch>
  <duration>6</duration>
  <voice>1</voice>
  <type>eighth</type>
  <stem>down</stem>
  <beam number="1">end</beam>
</note>
</measure>
<measure number="18">
<note>
  <pitch>
    <step>A</step>
    <alter>0</alter>
    <octave>4</octave>
  </pitch>
  <duration>6</duration>
  <voice>1</voice>
  <type>eighth</type>
  <stem>up</stem>
  <beam number="1">begin</beam>
</note>
<note>
  <pitch>
    <step>B</step>
    <alter>0</alter>
    <octave>3</octave>
  </pitch>
  <duration>3</duration>
  <voice>1</voice>
  <type>16th</type>
  <stem>up</stem>
  <beam number="1">continue</beam>
  <beam number="2">begin</beam>
</note>
<note>
  <pitch>
    <step>F</step>
    <alter>0</alter>
    <octave>4</octave>
  </pitch>
  <duration>3</duration>
  <voice>1</voice>
  <type>16th</type>
  <stem>up</stem>
  <beam number="1">end</beam>
  <beam number="2">end</beam>
</note>
<note>
  <pitch>
    <step>F</step>
    <alter>0</alter>
    <octave>4</octave>
  </pitch>
  <duration>6</duration>
  <voice>1</voice>
  <type>eighth</type>
  <stem>up</stem>
  <beam number="1">begin</beam>
  <notations>
<slur type="start" number="3" placement="below" orientation="under"/>
  </notations>
</note>
<note>
  <pitch>
    <step>E</step>
    <alter>0</alter>
    <octave>4</octave>
  </pitch>
  <duration>6</duration>
  <voice>1</voice>
  <type>eighth</type>
  <stem>up</stem>
  <beam number="1">end</beam>
  <notations>
    <slur type="stop" number="3"/>
  </notations>
</note>
</measure>
<measure number="19">
<note>
  <pitch>
    <step>F</step>
    <alter>0</alter>
    <octave>4</octave>
  </pitch>
  <duration>6</duration>
  <voice>1</voice>
  <type>eighth</type>
  <stem>up</stem>
  <beam number="1">begin</beam>
</note>
<note>
  <pitch>
    <step>F</step>
    <alter>0</alter>
    <octave>4</octave>
  </pitch>
  <duration>6</duration>
  <voice>1</voice>
  <type>eighth</type>
  <stem>up</stem>
  <beam number="1">end</beam>
</note>
<note>
  <rest/>
  <duration>12</duration>
  <voice>1</voice>
  <type>quarter</type>
</note>
</measure>
<measure number="20">
<note>
  <pitch>
    <step>F</step>
    <alter>0</alter>
    <octave>4</octave>
  </pitch>
  <duration>18</duration>
  <voice>1</voice>
  <type>quarter</type>
  <dot/>
  <stem>up</stem>
</note>
<note>
  <pitch>
    <step>F</step>
    <alter>0</alter>
    <octave>4</octave>
  </pitch>
  <duration>6</duration>
  <voice>1</voice>
  <type>eighth</type>
  <stem>up</stem>
</note>
</measure>
<measure number="21">
<note>
  <pitch>
    <step>F</step>
    <alter>0</alter>
    <octave>4</octave>
  </pitch>
  <duration>12</duration>
  <voice>1</voice>
  <type>quarter</type>
  <stem>up</stem>
</note>
<note>
  <pitch>
    <step>F</step>
    <alter>0</alter>
    <octave>4</octave>
  </pitch>
  <duration>12</duration>
  <voice>1</voice>
  <type>quarter</type>
  <stem>up</stem>
</note>
</measure>
<measure number="22">
<note>
  <rest/>
  <duration>6</duration>
  <voice>1</voice>
  <type>eighth</type>
</note>
<note>
  <pitch>
    <step>F</step>
    <alter>0</alter>
    <octave>4</octave>
  </pitch>
  <duration>6</duration>
  <voice>1</voice>
  <type>eighth</type>
  <stem>up</stem>
</note>
<note>
  <pitch>
    <step>F</step>
    <alter>0</alter>
    <octave>4</octave>
  </pitch>
  <duration>12</duration>
  <voice>1</voice>
  <type>quarter</type>
  <stem>up</stem>
</note>
</measure>
<measure number="23">
<note>
  <pitch>
    <step>F</step>
    <alter>0</alter>
    <octave>4</octave>
  </pitch>
  <duration>12</duration>
  <voice>1</voice>
  <type>quarter</type>
  <stem>up</stem>
</note>
<note>
  <rest/>
  <duration>12</duration>
  <voice>1</voice>
  <type>quarter</type>
</note>
</measure>
<measure number="24">
<note>
  <pitch>
    <step>F</step>
    <alter>0</alter>
    <octave>4</octave>
  </pitch>
  <duration>6</duration>
  <voice>1</voice>
  <type>eighth</type>
  <stem>up</stem>
</note>
<note>
  <rest/>
  <duration>6</duration>
  <voice>1</voice>
  <type>eighth</type>
</note>
<note>
  <pitch>
    <step>F</step>
    <alter>0</alter>
    <octave>4</octave>
  </pitch>
  <duration>6</duration>
  <voice>1</voice>
  <type>eighth</type>
  <stem>up</stem>
</note>
<note>
  <rest/>
  <duration>6</duration>
  <voice>1</voice>
  <type>eighth</type>
</note>
</measure>
<measure number="25">
<note>
  <pitch>
    <step>F</step>
    <alter>0</alter>
    <octave>4</octave>
  </pitch>
  <duration>6</duration>
  <voice>1</voice>
  <type>eighth</type>
  <stem>up</stem>
</note>
<note>
  <rest/>
  <duration>6</duration>
  <voice>1</voice>
  <type>eighth</type>
</note>
<note>
  <pitch>
    <step>F</step>
    <alter>0</alter>
    <octave>4</octave>
  </pitch>
  <duration>6</duration>
  <voice>1</voice>
  <type>eighth</type>
  <stem>up</stem>
</note>
<note>
  <rest/>
  <duration>6</duration>
  <voice>1</voice>
  <type>eighth</type>
</note>
</measure>
<measure number="26">
<note>
  <pitch>
    <step>F</step>
    <alter>0</alter>
    <octave>4</octave>
  </pitch>
  <duration>6</duration>
  <voice>1</voice>
  <type>eighth</type>
  <stem>up</stem>
  <beam number="1">begin</beam>
</note>
<note>
  <pitch>
    <step>F</step>
    <alter>0</alter>
    <octave>4</octave>
  </pitch>
  <duration>6</duration>
  <voice>1</voice>
  <type>eighth</type>
  <stem>up</stem>
  <beam number="1">continue</beam>
</note>
<note>
  <pitch>
    <step>F</step>
    <alter>0</alter>
    <octave>4</octave>
  </pitch>
  <duration>6</duration>
  <voice>1</voice>
  <type>eighth</type>
  <stem>up</stem>
  <beam number="1">continue</beam>
</note>
<note>
  <pitch>
    <step>F</step>
    <alter>0</alter>
    <octave>4</octave>
  </pitch>
  <duration>6</duration>
  <voice>1</voice>
  <type>eighth</type>
  <stem>up</stem>
  <beam number="1">end</beam>
</note>
</measure>
<measure number="27">
<note>
  <pitch>
    <step>F</step>
    <alter>0</alter>
    <octave>4</octave>
  </pitch>
  <duration>6</duration>
  <voice>1</voice>
  <type>eighth</type>
  <stem>up</stem>
  <beam number="1">begin</beam>
</note>
<note>
  <pitch>
    <step>F</step>
    <alter>0</alter>
    <octave>4</octave>
  </pitch>
  <duration>6</duration>
  <voice>1</voice>
  <type>eighth</type>
  <stem>up</stem>
  <beam number="1">continue</beam>
</note>
<note>
  <pitch>
    <step>F</step>
    <alter>0</alter>
    <octave>4</octave>
  </pitch>
  <duration>6</duration>
  <voice>1</voice>
  <type>eighth</type>
  <stem>up</stem>
  <beam number="1">continue</beam>
</note>
<note>
  <pitch>
    <step>F</step>
    <alter>0</alter>
    <octave>4</octave>
  </pitch>
  <duration>6</duration>
  <voice>1</voice>
  <type>eighth</type>
  <stem>up</stem>
  <beam number="1">end</beam>
</note>
</measure>
<measure number="28">
<note>
  <pitch>
    <step>E</step>
    <alter>0</alter>
    <octave>4</octave>
  </pitch>
  <duration>6</duration>
  <voice>1</voice>
  <type>eighth</type>
  <stem>up</stem>
  <beam number="1">begin</beam>
</note>
<note>
  <pitch>
    <step>E</step>
    <alter>0</alter>
    <octave>4</octave>
  </pitch>
  <duration>6</duration>
  <voice>1</voice>
  <type>eighth</type>
  <stem>up</stem>
  <beam number="1">continue</beam>
</note>
<note>
  <pitch>
    <step>F</step>
    <alter>1</alter>
    <octave>4</octave>
  </pitch>
  <duration>6</duration>
  <voice>1</voice>
  <type>eighth</type>
<accidental>sharp</accidental>
  <stem>up</stem>
  <beam number="1">continue</beam>
</note>
<note>
  <pitch>
    <step>F</step>
    <alter>1</alter>
    <octave>4</octave>
  </pitch>
  <duration>6</duration>
  <voice>1</voice>
  <type>eighth</type>
  <stem>up</stem>
  <beam number="1">end</beam>
</note>
</measure>
<measure number="29">
<note>
  <pitch>
    <step>G</step>
    <alter>0</alter>
    <octave>4</octave>
  </pitch>
  <duration>6</duration>
  <voice>1</voice>
  <type>eighth</type>
  <stem>up</stem>
  <beam number="1">begin</beam>
</note>
<note>
  <pitch>
    <step>F</step>
    <alter>1</alter>
    <octave>4</octave>
  </pitch>
  <duration>6</duration>
  <voice>1</voice>
  <type>eighth</type>
<accidental>sharp</accidental>
  <stem>up</stem>
  <beam number="1">continue</beam>
</note>
<note>
  <pitch>
    <step>E</step>
    <alter>0</alter>
    <octave>4</octave>
  </pitch>
  <duration>6</duration>
  <voice>1</voice>
  <type>eighth</type>
  <stem>up</stem>
  <beam number="1">continue</beam>
</note>
<note>
  <pitch>
    <step>C</step>
    <alter>0</alter>
    <octave>4</octave>
  </pitch>
  <duration>6</duration>
  <voice>1</voice>
  <type>eighth</type>
  <stem>up</stem>
  <beam number="1">end</beam>
</note>
</measure>
<measure number="30">
<note>
  <pitch>
    <step>E</step>
    <alter>0</alter>
    <octave>4</octave>
  </pitch>
  <duration>6</duration>
  <voice>1</voice>
  <type>eighth</type>
  <stem>up</stem>
  <beam number="1">begin</beam>
</note>
<note>
  <pitch>
    <step>F</step>
    <alter>1</alter>
    <octave>4</octave>
  </pitch>
  <duration>6</duration>
  <voice>1</voice>
  <type>eighth</type>
<accidental>sharp</accidental>
  <stem>up</stem>
  <beam number="1">end</beam>
</note>
<note>
  <pitch>
    <step>B</step>
    <alter>0</alter>
    <octave>3</octave>
  </pitch>
  <duration>3</duration>
  <voice>1</voice>
  <type>16th</type>
  <stem>up</stem>
  <beam number="1">begin</beam>
  <beam number="2">begin</beam>
</note>
<note>
  <pitch>
    <step>G</step>
    <alter>0</alter>
    <octave>4</octave>
  </pitch>
  <duration>3</duration>
  <voice>1</voice>
  <type>16th</type>
  <stem>up</stem>
  <beam number="1">continue</beam>
  <beam number="2">continue</beam>
</note>
<note>
  <pitch>
    <step>G</step>
    <alter>0</alter>
    <octave>4</octave>
  </pitch>
  <duration>3</duration>
  <voice>1</voice>
  <type>16th</type>
  <stem>up</stem>
  <beam number="1">continue</beam>
  <beam number="2">continue</beam>
</note>
<note>
  <pitch>
    <step>F</step>
    <alter>1</alter>
    <octave>4</octave>
  </pitch>
  <duration>3</duration>
  <voice>1</voice>
  <type>16th</type>
  <stem>up</stem>
  <beam number="1">end</beam>
  <beam number="2">end</beam>
</note>
</measure>
<measure number="31">
<note>
  <pitch>
    <step>E</step>
    <alter>0</alter>
    <octave>4</octave>
  </pitch>
  <duration>6</duration>
  <voice>1</voice>
  <type>eighth</type>
  <stem>up</stem>
  <beam number="1">begin</beam>
</note>
<note>
  <pitch>
    <step>C</step>
    <alter>0</alter>
    <octave>4</octave>
  </pitch>
  <duration>6</duration>
  <voice>1</voice>
  <type>eighth</type>
  <stem>up</stem>
  <beam number="1">end</beam>
</note>
<note>
  <rest/>
  <duration>12</duration>
  <voice>1</voice>
  <type>quarter</type>
</note>
</measure>
<measure number="32">
<note>
<cue/>
  <pitch>
    <step>B</step>
    <alter>0</alter>
    <octave>3</octave>
  </pitch>
  <duration>6</duration>
  <voice>1</voice>
  <type size="cue">eighth</type>
  <stem>up</stem>
  <beam number="1">begin</beam>
</note>
<note>
<cue/>
  <pitch>
    <step>B</step>
    <alter>0</alter>
    <octave>3</octave>
  </pitch>
  <duration>6</duration>
  <voice>1</voice>
  <type size="cue">eighth</type>
  <stem>up</stem>
  <beam number="1">continue</beam>
</note>
<note>
<cue/>
  <pitch>
    <step>B</step>
    <alter>0</alter>
    <octave>3</octave>
  </pitch>
  <duration>6</duration>
  <voice>1</voice>
  <type size="cue">eighth</type>
  <stem>up</stem>
  <beam number="1">continue</beam>
</note>
<note>
<cue/>
  <pitch>
    <step>D</step>
    <alter>0</alter>
    <octave>4</octave>
  </pitch>
  <duration>6</duration>
  <voice>1</voice>
  <type size="cue">eighth</type>
  <stem>up</stem>
  <beam number="1">end</beam>
</note>
</measure>
<measure number="33">
<note>
  <pitch>
    <step>E</step>
    <alter>0</alter>
    <octave>4</octave>
  </pitch>
  <duration>3</duration>
  <voice>1</voice>
  <type>16th</type>
  <stem>up</stem>
  <beam number="1">begin</beam>
  <beam number="2">begin</beam>
</note>
<note>
  <pitch>
    <step>E</step>
    <alter>0</alter>
    <octave>4</octave>
  </pitch>
  <duration>3</duration>
  <voice>1</voice>
  <type>16th</type>
  <stem>up</stem>
  <beam number="1">continue</beam>
  <beam number="2">continue</beam>
</note>
<note>
  <pitch>
    <step>F</step>
    <alter>0</alter>
    <octave>4</octave>
  </pitch>
  <duration>3</duration>
  <voice>1</voice>
  <type>16th</type>
  <stem>up</stem>
  <beam number="1">continue</beam>
  <beam number="2">continue</beam>
</note>
<note>
  <pitch>
    <step>E</step>
    <alter>0</alter>
    <octave>4</octave>
  </pitch>
  <duration>3</duration>
  <voice>1</voice>
  <type>16th</type>
  <stem>up</stem>
  <beam number="1">end</beam>
  <beam number="2">end</beam>
</note>
<note>
  <rest/>
  <duration>12</duration>
  <voice>1</voice>
  <type>quarter</type>
</note>
</measure>
<measure number="34">
<note>
  <pitch>
    <step>B</step>
    <alter>0</alter>
    <octave>3</octave>
  </pitch>
  <duration>3</duration>
  <voice>1</voice>
  <type>16th</type>
  <stem>up</stem>
  <beam number="1">begin</beam>
  <beam number="2">begin</beam>
</note>
<note>
  <pitch>
    <step>F</step>
    <alter>0</alter>
    <octave>4</octave>
  </pitch>
  <duration>3</duration>
  <voice>1</voice>
  <type>16th</type>
  <stem>up</stem>
  <beam number="1">continue</beam>
  <beam number="2">continue</beam>
</note>
<note>
  <pitch>
    <step>F</step>
    <alter>0</alter>
    <octave>4</octave>
  </pitch>
  <duration>3</duration>
  <voice>1</voice>
  <type>16th</type>
  <stem>up</stem>
  <beam number="1">continue</beam>
  <beam number="2">continue</beam>
</note>
<note>
  <pitch>
    <step>E</step>
    <alter>0</alter>
    <octave>4</octave>
  </pitch>
  <duration>3</duration>
  <voice>1</voice>
  <type>16th</type>
  <stem>up</stem>
  <beam number="1">end</beam>
  <beam number="2">end</beam>
</note>
<note>
  <pitch>
    <step>B</step>
    <alter>0</alter>
    <octave>3</octave>
  </pitch>
  <duration>3</duration>
  <voice>1</voice>
  <type>16th</type>
  <stem>up</stem>
  <beam number="1">begin</beam>
  <beam number="2">begin</beam>
</note>
<note>
  <pitch>
    <step>F</step>
    <alter>0</alter>
    <octave>4</octave>
  </pitch>
  <duration>3</duration>
  <voice>1</voice>
  <type>16th</type>
  <stem>up</stem>
  <beam number="1">continue</beam>
  <beam number="2">continue</beam>
</note>
<note>
  <pitch>
    <step>F</step>
    <alter>0</alter>
    <octave>4</octave>
  </pitch>
  <duration>3</duration>
  <voice>1</voice>
  <type>16th</type>
  <stem>up</stem>
  <beam number="1">continue</beam>
  <beam number="2">continue</beam>
</note>
<note>
  <pitch>
    <step>E</step>
    <alter>0</alter>
    <octave>4</octave>
  </pitch>
  <duration>3</duration>
  <voice>1</voice>
  <type>16th</type>
  <stem>up</stem>
  <beam number="1">end</beam>
  <beam number="2">end</beam>
</note>
</measure>
<measure number="35">
<note>
  <pitch>
    <step>E</step>
    <alter>0</alter>
    <octave>4</octave>
  </pitch>
  <duration>3</duration>
  <voice>1</voice>
  <type>16th</type>
  <stem>up</stem>
  <beam number="1">begin</beam>
  <beam number="2">begin</beam>
</note>
<note>
  <pitch>
    <step>A</step>
    <alter>0</alter>
    <octave>4</octave>
  </pitch>
  <duration>3</duration>
  <voice>1</voice>
  <type>16th</type>
  <stem>up</stem>
  <beam number="1">continue</beam>
  <beam number="2">continue</beam>
</note>
<note>
  <pitch>
    <step>A</step>
    <alter>0</alter>
    <octave>4</octave>
  </pitch>
  <duration>3</duration>
  <voice>1</voice>
  <type>16th</type>
  <stem>up</stem>
  <beam number="1">continue</beam>
  <beam number="2">continue</beam>
</note>
<note>
  <pitch>
    <step>A</step>
    <alter>0</alter>
    <octave>4</octave>
  </pitch>
  <duration>3</duration>
  <voice>1</voice>
  <type>16th</type>
  <stem>up</stem>
  <beam number="1">end</beam>
  <beam number="2">end</beam>
</note>
<note>
  <pitch>
    <step>B</step>
    <alter>0</alter>
    <octave>4</octave>
  </pitch>
  <duration>6</duration>
  <voice>1</voice>
  <type>eighth</type>
  <stem>down</stem>
</note>
<note>
  <rest/>
  <duration>6</duration>
  <voice>1</voice>
  <type>eighth</type>
</note>
</measure>
<measure number="36">
<note>
  <pitch>
    <step>D</step>
    <alter>0</alter>
    <octave>4</octave>
  </pitch>
  <duration>6</duration>
  <voice>1</voice>
  <type>eighth</type>
  <stem>up</stem>
  <beam number="1">begin</beam>
</note>
<note>
  <pitch>
    <step>E</step>
    <alter>0</alter>
    <octave>4</octave>
  </pitch>
  <duration>6</duration>
  <voice>1</voice>
  <type>eighth</type>
  <stem>up</stem>
  <beam number="1">end</beam>
</note>
<note>
  <pitch>
    <step>B</step>
    <alter>0</alter>
    <octave>3</octave>
  </pitch>
  <duration>3</duration>
  <voice>1</voice>
  <type>16th</type>
  <stem>up</stem>
  <beam number="1">begin</beam>
  <beam number="2">begin</beam>
</note>
<note>
  <pitch>
    <step>F</step>
    <alter>0</alter>
    <octave>4</octave>
  </pitch>
  <duration>3</duration>
  <voice>1</voice>
  <type>16th</type>
  <stem>up</stem>
  <beam number="1">continue</beam>
  <beam number="2">continue</beam>
</note>
<note>
  <pitch>
    <step>F</step>
    <alter>0</alter>
    <octave>4</octave>
  </pitch>
  <duration>3</duration>
  <voice>1</voice>
  <type>16th</type>
  <stem>up</stem>
  <beam number="1">continue</beam>
  <beam number="2">continue</beam>
</note>
<note>
  <pitch>
    <step>E</step>
    <alter>0</alter>
    <octave>4</octave>
  </pitch>
  <duration>3</duration>
  <voice>1</voice>
  <type>16th</type>
  <stem>up</stem>
  <beam number="1">end</beam>
  <beam number="2">end</beam>
</note>
</measure>
<measure number="37">
<note>
  <pitch>
    <step>B</step>
    <alter>0</alter>
    <octave>3</octave>
  </pitch>
  <duration>3</duration>
  <voice>1</voice>
  <type>16th</type>
  <stem>up</stem>
  <beam number="1">begin</beam>
  <beam number="2">begin</beam>
</note>
<note>
  <pitch>
    <step>F</step>
    <alter>0</alter>
    <octave>4</octave>
  </pitch>
  <duration>3</duration>
  <voice>1</voice>
  <type>16th</type>
  <stem>up</stem>
  <beam number="1">continue</beam>
  <beam number="2">continue</beam>
</note>
<note>
  <pitch>
    <step>F</step>
    <alter>0</alter>
    <octave>4</octave>
  </pitch>
  <duration>3</duration>
  <voice>1</voice>
  <type>16th</type>
  <stem>up</stem>
  <beam number="1">continue</beam>
  <beam number="2">continue</beam>
</note>
<note>
  <pitch>
    <step>E</step>
    <alter>0</alter>
    <octave>4</octave>
  </pitch>
  <duration>3</duration>
  <voice>1</voice>
  <type>16th</type>
  <stem>up</stem>
  <beam number="1">end</beam>
  <beam number="2">end</beam>
</note>
<note>
  <pitch>
    <step>E</step>
    <alter>0</alter>
    <octave>4</octave>
  </pitch>
  <duration>6</duration>
  <voice>1</voice>
  <type>eighth</type>
  <stem>up</stem>
</note>
<note>
  <rest/>
  <duration>6</duration>
  <voice>1</voice>
  <type>eighth</type>
</note>
</measure>
<measure number="38">
<note>
  <pitch>
    <step>B</step>
    <alter>0</alter>
    <octave>4</octave>
  </pitch>
  <duration>3</duration>
  <voice>1</voice>
  <type>16th</type>
  <stem>down</stem>
  <beam number="1">begin</beam>
  <beam number="2">begin</beam>
</note>
<note>
  <pitch>
    <step>B</step>
    <alter>0</alter>
    <octave>4</octave>
  </pitch>
  <duration>3</duration>
  <voice>1</voice>
  <type>16th</type>
  <stem>down</stem>
  <beam number="1">continue</beam>
  <beam number="2">end</beam>
</note>
<note>
  <pitch>
    <step>B</step>
    <alter>0</alter>
    <octave>4</octave>
  </pitch>
  <duration>6</duration>
  <voice>1</voice>
  <type>eighth</type>
  <stem>down</stem>
  <beam number="1">end</beam>
</note>
<note>
  <pitch>
    <step>A</step>
    <alter>0</alter>
    <octave>4</octave>
  </pitch>
  <duration>3</duration>
  <voice>1</voice>
  <type>16th</type>
  <stem>up</stem>
  <beam number="1">begin</beam>
  <beam number="2">begin</beam>
</note>
<note>
  <pitch>
    <step>A</step>
    <alter>0</alter>
    <octave>4</octave>
  </pitch>
  <duration>3</duration>
  <voice>1</voice>
  <type>16th</type>
  <stem>up</stem>
  <beam number="1">continue</beam>
  <beam number="2">end</beam>
</note>
<note>
  <pitch>
    <step>A</step>
    <alter>0</alter>
    <octave>4</octave>
  </pitch>
  <duration>6</duration>
  <voice>1</voice>
  <type>eighth</type>
  <stem>up</stem>
  <beam number="1">end</beam>
</note>
</measure>
<measure number="39">
<note>
  <pitch>
    <step>B</step>
    <alter>0</alter>
    <octave>4</octave>
  </pitch>
  <duration>6</duration>
  <voice>1</voice>
  <type>eighth</type>
  <stem>down</stem>
  <beam number="1">begin</beam>
</note>
<note>
  <pitch>
    <step>B</step>
    <alter>0</alter>
    <octave>4</octave>
  </pitch>
  <duration>3</duration>
  <voice>1</voice>
  <type>16th</type>
  <stem>down</stem>
  <beam number="1">continue</beam>
  <beam number="2">begin</beam>
</note>
<note>
  <pitch>
    <step>B</step>
    <alter>0</alter>
    <octave>4</octave>
  </pitch>
  <duration>3</duration>
  <voice>1</voice>
  <type>16th</type>
  <stem>down</stem>
  <beam number="1">end</beam>
  <beam number="2">end</beam>
</note>
<note>
  <pitch>
    <step>B</step>
    <alter>0</alter>
    <octave>4</octave>
  </pitch>
  <duration>6</duration>
  <voice>1</voice>
  <type>eighth</type>
  <stem>down</stem>
  <beam number="1">begin</beam>
</note>
<note>
  <pitch>
    <step>D</step>
    <alter>0</alter>
    <octave>5</octave>
  </pitch>
  <duration>6</duration>
  <voice>1</voice>
  <type>eighth</type>
  <stem>down</stem>
  <beam number="1">end</beam>
</note>
</measure>
<measure number="40">
<note>
  <pitch>
    <step>E</step>
    <alter>0</alter>
    <octave>5</octave>
  </pitch>
  <duration>6</duration>
  <voice>1</voice>
  <type>eighth</type>
  <stem>down</stem>
  <beam number="1">begin</beam>
  <notations>
<articulations><staccato placement="below"/></articulations>
  </notations>
</note>
<note>
  <pitch>
    <step>E</step>
    <alter>0</alter>
    <octave>5</octave>
  </pitch>
  <duration>3</duration>
  <voice>1</voice>
  <type>16th</type>
  <stem>down</stem>
  <beam number="1">continue</beam>
  <beam number="2">begin</beam>
  <notations>
<articulations><staccato placement="below"/></articulations>
  </notations>
</note>
<note>
  <pitch>
    <step>E</step>
    <alter>0</alter>
    <octave>5</octave>
  </pitch>
  <duration>3</duration>
  <voice>1</voice>
  <type>16th</type>
  <stem>down</stem>
  <beam number="1">end</beam>
  <beam number="2">end</beam>
  <notations>
<articulations><staccato placement="below"/></articulations>
  </notations>
</note>
<note>
  <pitch>
    <step>E</step>
    <alter>0</alter>
    <octave>5</octave>
  </pitch>
  <duration>6</duration>
  <voice>1</voice>
  <type>eighth</type>
  <stem>down</stem>
  <beam number="1">begin</beam>
</note>
<note>
  <pitch>
    <step>F</step>
    <alter>0</alter>
    <octave>5</octave>
  </pitch>
  <duration>6</duration>
  <voice>1</voice>
  <type>eighth</type>
  <stem>down</stem>
  <beam number="1">end</beam>
</note>
</measure>
<measure number="41">
<note>
  <pitch>
    <step>E</step>
    <alter>0</alter>
    <octave>5</octave>
  </pitch>
  <duration>6</duration>
  <voice>1</voice>
  <type>eighth</type>
  <stem>up</stem>
  <beam number="1">begin</beam>
</note>
<note>
  <pitch>
    <step>B</step>
    <alter>0</alter>
    <octave>3</octave>
  </pitch>
  <duration>3</duration>
  <voice>1</voice>
  <type>16th</type>
  <stem>up</stem>
  <beam number="1">continue</beam>
  <beam number="2">begin</beam>
</note>
<note>
  <pitch>
    <step>C</step>
    <alter>0</alter>
    <octave>5</octave>
  </pitch>
  <duration>3</duration>
  <voice>1</voice>
  <type>16th</type>
  <stem>up</stem>
  <beam number="1">end</beam>
  <beam number="2">end</beam>
</note>
<note>
  <pitch>
    <step>C</step>
    <alter>0</alter>
    <octave>5</octave>
  </pitch>
  <duration>6</duration>
  <voice>1</voice>
  <type>eighth</type>
  <stem>down</stem>
  <notations>
<articulations><staccato placement="below"/></articulations>
  </notations>
</note>
<note>
  <rest/>
  <duration>6</duration>
  <voice>1</voice>
  <type>eighth</type>
</note>
</measure>
<measure number="42">
<note>
  <pitch>
    <step>E</step>
    <alter>0</alter>
    <octave>5</octave>
  </pitch>
  <duration>6</duration>
  <voice>1</voice>
  <type>eighth</type>
  <stem>down</stem>
  <beam number="1">begin</beam>
</note>
<note>
  <pitch>
    <step>E</step>
    <alter>0</alter>
    <octave>5</octave>
  </pitch>
  <duration>3</duration>
  <voice>1</voice>
  <type>16th</type>
  <stem>down</stem>
  <beam number="1">continue</beam>
  <beam number="2">begin</beam>
</note>
<note>
  <pitch>
    <step>E</step>
    <alter>0</alter>
    <octave>5</octave>
  </pitch>
  <duration>3</duration>
  <voice>1</voice>
  <type>16th</type>
  <stem>down</stem>
  <beam number="1">end</beam>
  <beam number="2">end</beam>
</note>
<note>
  <pitch>
    <step>B</step>
    <alter>0</alter>
    <octave>3</octave>
  </pitch>
  <duration>3</duration>
  <voice>1</voice>
  <type>16th</type>
  <stem>up</stem>
  <beam number="1">begin</beam>
  <beam number="2">begin</beam>
<notations><technical><fingering>2</fingering> </technical> </notations></note>
<note>
  <pitch>
    <step>C</step>
    <alter>0</alter>
    <octave>5</octave>
  </pitch>
  <duration>3</duration>
  <voice>1</voice>
  <type>16th</type>
  <stem>up</stem>
  <beam number="1">continue</beam>
  <beam number="2">end</beam>
</note>
<note>
  <pitch>
    <step>C</step>
    <alter>0</alter>
    <octave>5</octave>
  </pitch>
  <duration>6</duration>
  <voice>1</voice>
  <type>eighth</type>
  <stem>up</stem>
  <beam number="1">end</beam>
</note>
</measure>
<measure number="43">
<note>
  <grace/>
  <pitch>
    <step>E</step>
    <alter>0</alter>
    <octave>5</octave>
  </pitch>
  <voice>1</voice>
  <type size="cue">16th</type>
  <stem>up</stem>
  <beam number="1">begin</beam>
  <beam number="2">begin</beam>
</note>
<note>
  <grace/>
  <pitch>
    <step>E</step>
    <alter>0</alter>
    <octave>5</octave>
  </pitch>
  <voice>1</voice>
  <type size="cue">16th</type>
  <stem>up</stem>
  <beam number="1">continue</beam>
  <beam number="2">continue</beam>
</note>
<note>
  <grace/>
  <pitch>
    <step>B</step>
    <alter>0</alter>
    <octave>3</octave>
  </pitch>
  <voice>1</voice>
  <type size="cue">16th</type>
  <stem>up</stem>
  <beam number="1">continue</beam>
  <beam number="2">continue</beam>
</note>
<note>
  <grace/>
  <pitch>
    <step>C</step>
    <alter>0</alter>
    <octave>5</octave>
  </pitch>
  <voice>1</voice>
  <type size="cue">16th</type>
  <stem>up</stem>
  <beam number="1">end</beam>
  <beam number="2">end</beam>
</note>
<note>
  <rest/>
  <duration>18</duration>
  <voice>1</voice>
  <type>quarter</type>
  <dot/>
</note>
<note>
  <pitch>
    <step>C</step>
    <alter>0</alter>
    <octave>5</octave>
  </pitch>
  <duration>6</duration>
  <voice>1</voice>
  <type>eighth</type>
  <stem>down</stem>
</note>
</measure>
<measure number="44">
<note>
  <pitch>
    <step>E</step>
    <alter>0</alter>
    <octave>5</octave>
  </pitch>
  <duration>6</duration>
  <voice>1</voice>
  <type>eighth</type>
  <stem>down</stem>
  <beam number="1">begin</beam>
</note>
<note>
  <pitch>
    <step>E</step>
    <alter>0</alter>
    <octave>5</octave>
  </pitch>
  <duration>3</duration>
  <voice>1</voice>
  <type>16th</type>
  <stem>down</stem>
  <beam number="1">continue</beam>
  <beam number="2">begin</beam>
</note>
<note>
  <pitch>
    <step>E</step>
    <alter>0</alter>
    <octave>5</octave>
  </pitch>
  <duration>3</duration>
  <voice>1</voice>
  <type>16th</type>
  <stem>down</stem>
  <beam number="1">end</beam>
  <beam number="2">end</beam>
</note>
<note>
  <pitch>
    <step>B</step>
    <alter>0</alter>
    <octave>3</octave>
  </pitch>
  <duration>3</duration>
  <voice>1</voice>
  <type>16th</type>
  <stem>up</stem>
  <beam number="1">begin</beam>
  <beam number="2">begin</beam>
</note>
<note>
  <pitch>
    <step>C</step>
    <alter>0</alter>
    <octave>5</octave>
  </pitch>
  <duration>3</duration>
  <voice>1</voice>
  <type>16th</type>
  <stem>up</stem>
  <beam number="1">continue</beam>
  <beam number="2">end</beam>
</note>
<note>
  <pitch>
    <step>C</step>
    <alter>0</alter>
    <octave>5</octave>
  </pitch>
  <duration>6</duration>
  <voice>1</voice>
  <type>eighth</type>
  <stem>up</stem>
  <beam number="1">end</beam>
</note>
</measure>
<measure number="45">
<note>
  <pitch>
    <step>E</step>
    <alter>0</alter>
    <octave>5</octave>
  </pitch>
  <duration>3</duration>
  <voice>1</voice>
  <type>16th</type>
  <stem>up</stem>
  <beam number="1">begin</beam>
  <beam number="2">begin</beam>
</note>
<note>
  <pitch>
    <step>E</step>
    <alter>0</alter>
    <octave>5</octave>
  </pitch>
  <duration>3</duration>
  <voice>1</voice>
  <type>16th</type>
  <stem>up</stem>
  <beam number="1">continue</beam>
  <beam number="2">continue</beam>
</note>
<note>
  <pitch>
    <step>B</step>
    <alter>0</alter>
    <octave>3</octave>
  </pitch>
  <duration>3</duration>
  <voice>1</voice>
  <type>16th</type>
  <stem>up</stem>
  <beam number="1">continue</beam>
  <beam number="2">continue</beam>
</note>
<note>
  <pitch>
    <step>C</step>
    <alter>0</alter>
    <octave>5</octave>
  </pitch>
  <duration>3</duration>
  <voice>1</voice>
  <type>16th</type>
  <stem>up</stem>
  <beam number="1">end</beam>
  <beam number="2">end</beam>
</note>
<note>
  <pitch>
    <step>C</step>
    <alter>0</alter>
    <octave>5</octave>
  </pitch>
  <duration>6</duration>
  <voice>1</voice>
  <type>eighth</type>
  <stem>down</stem>
  <notations>
<slur type="start" number="4" placement="below" orientation="under"/>
<articulations><staccato placement="below"/></articulations>
  </notations>
</note>
<note>
  <rest/>
  <duration>6</duration>
  <voice>1</voice>
  <type>eighth</type>
</note>
</measure>
<measure number="46">
<note>
  <pitch>
    <step>F</step>
    <alter>0</alter>
    <octave>5</octave>
  </pitch>
  <duration>3</duration>
  <voice>1</voice>
  <type>16th</type>
  <stem>down</stem>
  <beam number="1">begin</beam>
  <beam number="2">begin</beam>
</note>
<note>
  <pitch>
    <step>F</step>
    <alter>0</alter>
    <octave>5</octave>
  </pitch>
  <duration>3</duration>
  <voice>1</voice>
  <type>16th</type>
  <stem>down</stem>
  <beam number="1">continue</beam>
  <beam number="2">continue</beam>
</note>
<note>
  <pitch>
    <step>F</step>
    <alter>0</alter>
    <octave>5</octave>
  </pitch>
  <duration>3</duration>
  <voice>1</voice>
  <type>16th</type>
  <stem>down</stem>
  <beam number="1">continue</beam>
  <beam number="2">continue</beam>
</note>
<note>
  <pitch>
    <step>F</step>
    <alter>0</alter>
    <octave>5</octave>
  </pitch>
  <duration>3</duration>
  <voice>1</voice>
  <type>16th</type>
  <stem>down</stem>
  <beam number="1">end</beam>
  <beam number="2">end</beam>
</note>
<note>
  <pitch>
    <step>E</step>
    <alter>0</alter>
    <octave>5</octave>
  </pitch>
  <duration>3</duration>
  <voice>1</voice>
  <type>16th</type>
  <stem>down</stem>
  <beam number="1">begin</beam>
  <beam number="2">begin</beam>
</note>
<note>
  <pitch>
    <step>E</step>
    <alter>0</alter>
    <octave>5</octave>
  </pitch>
  <duration>3</duration>
  <voice>1</voice>
  <type>16th</type>
  <stem>down</stem>
  <beam number="1">continue</beam>
  <beam number="2">continue</beam>
</note>
<note>
  <pitch>
    <step>E</step>
    <alter>0</alter>
    <octave>5</octave>
  </pitch>
  <duration>3</duration>
  <voice>1</voice>
  <type>16th</type>
  <stem>down</stem>
  <beam number="1">continue</beam>
  <beam number="2">continue</beam>
</note>
<note>
  <pitch>
    <step>E</step>
    <alter>0</alter>
    <octave>5</octave>
  </pitch>
  <duration>3</duration>
  <voice>1</voice>
  <type>16th</type>
  <stem>down</stem>
  <beam number="1">end</beam>
  <beam number="2">end</beam>
</note>
</measure>
<measure number="47">
<note>
  <pitch>
    <step>D</step>
    <alter>0</alter>
    <octave>5</octave>
  </pitch>
  <duration>3</duration>
  <voice>1</voice>
  <type>16th</type>
  <stem>down</stem>
  <beam number="1">begin</beam>
  <beam number="2">begin</beam>
  <notations>
<articulations><staccato placement="below"/></articulations>
  </notations>
</note>
<note>
  <pitch>
    <step>D</step>
    <alter>0</alter>
    <octave>5</octave>
  </pitch>
  <duration>3</duration>
  <voice>1</voice>
  <type>16th</type>
  <stem>down</stem>
  <beam number="1">continue</beam>
  <beam number="2">continue</beam>
  <notations>
<articulations><staccato placement="below"/></articulations>
  </notations>
</note>
<note>
  <pitch>
    <step>D</step>
    <alter>0</alter>
    <octave>5</octave>
  </pitch>
  <duration>3</duration>
  <voice>1</voice>
  <type>16th</type>
  <stem>down</stem>
  <beam number="1">continue</beam>
  <beam number="2">continue</beam>
  <notations>
<articulations><staccato placement="below"/></articulations>
  </notations>
</note>
<note>
  <pitch>
    <step>D</step>
    <alter>0</alter>
    <octave>5</octave>
  </pitch>
  <duration>3</duration>
  <voice>1</voice>
  <type>16th</type>
  <stem>down</stem>
  <beam number="1">end</beam>
  <beam number="2">end</beam>
  <notations>
<articulations><staccato placement="below"/></articulations>
  </notations>
</note>
<note>
  <pitch>
    <step>E</step>
    <alter>0</alter>
    <octave>5</octave>
  </pitch>
  <duration>3</duration>
  <voice>1</voice>
  <type>16th</type>
  <stem>down</stem>
  <beam number="1">begin</beam>
  <beam number="2">begin</beam>
</note>
<note>
  <pitch>
    <step>E</step>
    <alter>0</alter>
    <octave>5</octave>
  </pitch>
  <duration>3</duration>
  <voice>1</voice>
  <type>16th</type>
  <stem>down</stem>
  <beam number="1">continue</beam>
  <beam number="2">continue</beam>
</note>
<note>
  <pitch>
    <step>E</step>
    <alter>0</alter>
    <octave>5</octave>
  </pitch>
  <duration>3</duration>
  <voice>1</voice>
  <type>16th</type>
  <stem>down</stem>
  <beam number="1">continue</beam>
  <beam number="2">continue</beam>
</note>
<note>
  <pitch>
    <step>E</step>
    <alter>0</alter>
    <octave>5</octave>
  </pitch>
  <duration>3</duration>
  <voice>1</voice>
  <type>16th</type>
  <stem>down</stem>
  <beam number="1">end</beam>
  <beam number="2">end</beam>
</note>
</measure>
<measure number="48">
<note>
  <pitch>
    <step>F</step>
    <alter>0</alter>
    <octave>5</octave>
  </pitch>
  <duration>3</duration>
  <voice>1</voice>
  <type>16th</type>
  <stem>down</stem>
  <beam number="1">begin</beam>
  <beam number="2">begin</beam>
</note>
<note>
  <pitch>
    <step>F</step>
    <alter>0</alter>
    <octave>5</octave>
  </pitch>
  <duration>3</duration>
  <voice>1</voice>
  <type>16th</type>
  <stem>down</stem>
  <beam number="1">continue</beam>
  <beam number="2">continue</beam>
</note>
<note>
  <pitch>
    <step>F</step>
    <alter>0</alter>
    <octave>5</octave>
  </pitch>
  <duration>3</duration>
  <voice>1</voice>
  <type>16th</type>
  <stem>down</stem>
  <beam number="1">continue</beam>
  <beam number="2">continue</beam>
</note>
<note>
  <pitch>
    <step>F</step>
    <alter>0</alter>
    <octave>5</octave>
  </pitch>
  <duration>3</duration>
  <voice>1</voice>
  <type>16th</type>
  <stem>down</stem>
  <beam number="1">end</beam>
  <beam number="2">end</beam>
</note>
<note>
  <pitch>
    <step>E</step>
    <alter>0</alter>
    <octave>5</octave>
  </pitch>
  <duration>3</duration>
  <voice>1</voice>
  <type>16th</type>
  <stem>down</stem>
  <beam number="1">begin</beam>
  <beam number="2">begin</beam>
</note>
<note>
  <pitch>
    <step>E</step>
    <alter>0</alter>
    <octave>5</octave>
  </pitch>
  <duration>3</duration>
  <voice>1</voice>
  <type>16th</type>
  <stem>down</stem>
  <beam number="1">continue</beam>
  <beam number="2">continue</beam>
</note>
<note>
  <pitch>
    <step>E</step>
    <alter>0</alter>
    <octave>5</octave>
  </pitch>
  <duration>3</duration>
  <voice>1</voice>
  <type>16th</type>
  <stem>down</stem>
  <beam number="1">continue</beam>
  <beam number="2">continue</beam>
</note>
<note>
  <pitch>
    <step>E</step>
    <alter>0</alter>
    <octave>5</octave>
  </pitch>
  <duration>3</duration>
  <voice>1</voice>
  <type>16th</type>
  <stem>down</stem>
  <beam number="1">end</beam>
  <beam number="2">end</beam>
</note>
</measure>
<measure number="49">
<note>
  <pitch>
    <step>C</step>
    <alter>0</alter>
    <octave>5</octave>
  </pitch>
  <duration>3</duration>
  <voice>1</voice>
  <type>16th</type>
  <stem>down</stem>
  <beam number="1">begin</beam>
  <beam number="2">begin</beam>
  <notations>
<articulations><staccato placement="below"/></articulations>
  </notations>
</note>
<note>
  <pitch>
    <step>C</step>
    <alter>0</alter>
    <octave>5</octave>
  </pitch>
  <duration>3</duration>
  <voice>1</voice>
  <type>16th</type>
  <stem>down</stem>
  <beam number="1">continue</beam>
  <beam number="2">continue</beam>
  <notations>
<articulations><staccato placement="below"/></articulations>
  </notations>
</note>
<note>
  <pitch>
    <step>C</step>
    <alter>0</alter>
    <octave>5</octave>
  </pitch>
  <duration>3</duration>
  <voice>1</voice>
  <type>16th</type>
  <stem>down</stem>
  <beam number="1">continue</beam>
  <beam number="2">continue</beam>
  <notations>
<articulations><staccato placement="below"/></articulations>
  </notations>
</note>
<note>
  <pitch>
    <step>C</step>
    <alter>0</alter>
    <octave>5</octave>
  </pitch>
  <duration>3</duration>
  <voice>1</voice>
  <type>16th</type>
  <stem>down</stem>
  <beam number="1">end</beam>
  <beam number="2">end</beam>
  <notations>
<articulations><staccato placement="below"/></articulations>
  </notations>
</note>
<note>
  <pitch>
    <step>B</step>
    <alter>0</alter>
    <octave>4</octave>
  </pitch>
  <duration>3</duration>
  <voice>1</voice>
  <type>16th</type>
  <stem>down</stem>
  <beam number="1">begin</beam>
  <beam number="2">begin</beam>
</note>
<note>
  <pitch>
    <step>B</step>
    <alter>0</alter>
    <octave>4</octave>
  </pitch>
  <duration>3</duration>
    <tie type="start"/>
  <voice>1</voice>
  <type>16th</type>
  <stem>down</stem>
  <beam number="1">continue</beam>
  <beam number="2">continue</beam>
  <notations>
<tied type="start" number="1" orientation="under"/>
  </notations>
</note>
<note>
  <pitch>
    <step>B</step>
    <alter>0</alter>
    <octave>4</octave>
  </pitch>
  <duration>3</duration>
    <tie type="stop"/>
  <voice>1</voice>
  <type>16th</type>
  <stem>down</stem>
  <beam number="1">continue</beam>
  <beam number="2">continue</beam>
  <notations>
    <tied type="stop" number="1"/>
  </notations>
</note>
<note>
  <pitch>
    <step>B</step>
    <alter>0</alter>
    <octave>4</octave>
  </pitch>
  <duration>3</duration>
  <voice>1</voice>
  <type>16th</type>
  <stem>down</stem>
  <beam number="1">end</beam>
  <beam number="2">end</beam>
</note>
</measure>
<measure number="50">
<note>
  <pitch>
    <step>A</step>
    <alter>0</alter>
    <octave>4</octave>
  </pitch>
  <duration>3</duration>
  <voice>1</voice>
  <type>16th</type>
  <stem>up</stem>
  <beam number="1">begin</beam>
  <beam number="2">begin</beam>
</note>
<note>
  <pitch>
    <step>A</step>
    <alter>0</alter>
    <octave>4</octave>
  </pitch>
  <duration>3</duration>
  <voice>1</voice>
  <type>16th</type>
  <stem>up</stem>
  <beam number="1">continue</beam>
  <beam number="2">continue</beam>
</note>
<note>
  <pitch>
    <step>A</step>
    <alter>0</alter>
    <octave>4</octave>
  </pitch>
  <duration>3</duration>
  <voice>1</voice>
  <type>16th</type>
  <stem>up</stem>
  <beam number="1">continue</beam>
  <beam number="2">continue</beam>
</note>
<note>
  <pitch>
    <step>A</step>
    <alter>0</alter>
    <octave>4</octave>
  </pitch>
  <duration>3</duration>
  <voice>1</voice>
  <type>16th</type>
  <stem>up</stem>
  <beam number="1">end</beam>
  <beam number="2">end</beam>
</note>
<note>
  <pitch>
    <step>B</step>
    <alter>0</alter>
    <octave>4</octave>
  </pitch>
  <duration>6</duration>
  <voice>1</voice>
  <type>eighth</type>
  <stem>up</stem>
  <beam number="1">begin</beam>
</note>
<note>
  <pitch>
    <step>A</step>
    <alter>0</alter>
    <octave>4</octave>
  </pitch>
  <duration>3</duration>
  <voice>1</voice>
  <type>16th</type>
  <stem>up</stem>
  <beam number="1">continue</beam>
  <beam number="2">begin</beam>
</note>
<note>
  <pitch>
    <step>A</step>
    <alter>0</alter>
    <octave>4</octave>
  </pitch>
  <duration>3</duration>
  <voice>1</voice>
  <type>16th</type>
  <stem>up</stem>
  <beam number="1">end</beam>
  <beam number="2">end</beam>
  <notations>
<slur type="start" number="5" placement="above" orientation="over"/>
<slur type="start" number="1" placement="above" orientation="over"/>
  </notations>
</note>
</measure>
<measure number="51">
<note>
  <pitch>
    <step>B</step>
    <alter>0</alter>
    <octave>4</octave>
  </pitch>
  <duration>6</duration>
  <voice>1</voice>
  <type>eighth</type>
  <stem>up</stem>
  <beam number="1">begin</beam>
  <notations>
    <slur type="stop" number="5"/>
    <slur type="stop" number="1"/>
  </notations>
</note>
<note>
  <pitch>
    <step>A</step>
    <alter>0</alter>
    <octave>4</octave>
  </pitch>
  <duration>3</duration>
  <voice>1</voice>
  <type>16th</type>
  <stem>up</stem>
  <beam number="1">continue</beam>
  <beam number="2">begin</beam>
</note>
<note>
  <pitch>
    <step>A</step>
    <alter>0</alter>
    <octave>4</octave>
  </pitch>
  <duration>3</duration>
  <voice>1</voice>
  <type>16th</type>
  <stem>up</stem>
  <beam number="1">end</beam>
  <beam number="2">end</beam>
</note>
<note>
  <pitch>
    <step>B</step>
    <alter>0</alter>
    <octave>4</octave>
  </pitch>
  <duration>6</duration>
  <voice>1</voice>
  <type>eighth</type>
  <stem>up</stem>
  <beam number="1">begin</beam>
</note>
<note>
  <pitch>
    <step>A</step>
    <alter>0</alter>
    <octave>4</octave>
  </pitch>
  <duration>3</duration>
  <voice>1</voice>
  <type>16th</type>
  <stem>up</stem>
  <beam number="1">continue</beam>
  <beam number="2">begin</beam>
</note>
<note>
  <pitch>
    <step>A</step>
    <alter>0</alter>
    <octave>4</octave>
  </pitch>
  <duration>3</duration>
  <voice>1</voice>
  <type>16th</type>
  <stem>up</stem>
  <beam number="1">end</beam>
  <beam number="2">end</beam>
</note>
</measure>
<measure number="52">
<note>
  <pitch>
    <step>B</step>
    <alter>0</alter>
    <octave>3</octave>
  </pitch>
  <duration>6</duration>
  <voice>1</voice>
  <type>eighth</type>
  <stem>up</stem>
  <beam number="1">begin</beam>
</note>
<note>
  <pitch>
    <step>E</step>
    <alter>0</alter>
    <octave>5</octave>
  </pitch>
  <duration>6</duration>
  <voice>1</voice>
  <type>eighth</type>
  <stem>up</stem>
  <beam number="1">continue</beam>
</note>
<note>
  <pitch>
    <step>B</step>
    <alter>0</alter>
    <octave>3</octave>
  </pitch>
  <duration>6</duration>
  <voice>1</voice>
  <type>eighth</type>
  <stem>up</stem>
  <beam number="1">continue</beam>
</note>
<note>
  <pitch>
    <step>C</step>
    <alter>0</alter>
    <octave>5</octave>
  </pitch>
  <duration>6</duration>
  <voice>1</voice>
  <type>eighth</type>
  <stem>up</stem>
  <beam number="1">end</beam>
</note>
</measure>
<measure number="53">
<note>
  <pitch>
    <step>B</step>
    <alter>0</alter>
    <octave>3</octave>
  </pitch>
  <duration>6</duration>
  <voice>1</voice>
  <type>eighth</type>
  <stem>up</stem>
  <beam number="1">begin</beam>
</note>
<note>
  <pitch>
    <step>C</step>
    <alter>0</alter>
    <octave>5</octave>
  </pitch>
  <duration>6</duration>
  <voice>1</voice>
  <type>eighth</type>
  <stem>up</stem>
  <beam number="1">continue</beam>
</note>
<note>
  <pitch>
    <step>B</step>
    <alter>0</alter>
    <octave>3</octave>
  </pitch>
  <duration>6</duration>
  <voice>1</voice>
  <type>eighth</type>
  <stem>up</stem>
  <beam number="1">continue</beam>
</note>
<note>
  <pitch>
    <step>B</step>
    <alter>0</alter>
    <octave>4</octave>
  </pitch>
  <duration>6</duration>
  <voice>1</voice>
  <type>eighth</type>
  <stem>up</stem>
  <beam number="1">end</beam>
</note>
</measure>
<measure number="54">
<note>
  <pitch>
    <step>B</step>
    <alter>0</alter>
    <octave>3</octave>
  </pitch>
  <duration>6</duration>
  <voice>1</voice>
  <type>eighth</type>
  <stem>up</stem>
  <beam number="1">begin</beam>
</note>
<note>
  <pitch>
    <step>B</step>
    <alter>0</alter>
    <octave>3</octave>
  </pitch>
  <duration>6</duration>
  <voice>1</voice>
  <type>eighth</type>
  <stem>up</stem>
  <beam number="1">end</beam>
</note>
<note>
  <pitch>
    <step>B</step>
    <alter>0</alter>
    <octave>4</octave>
  </pitch>
  <duration>3</duration>
  <voice>1</voice>
  <type>16th</type>
  <stem>down</stem>
  <beam number="1">begin</beam>
  <beam number="2">begin</beam>
</note>
<note>
  <pitch>
    <step>B</step>
    <alter>0</alter>
    <octave>4</octave>
  </pitch>
  <duration>3</duration>
  <voice>1</voice>
  <type>16th</type>
  <stem>down</stem>
  <beam number="1">continue</beam>
  <beam number="2">end</beam>
</note>
<note>
  <pitch>
    <step>B</step>
    <alter>0</alter>
    <octave>4</octave>
  </pitch>
  <duration>6</duration>
  <voice>1</voice>
  <type>eighth</type>
  <stem>down</stem>
  <beam number="1">end</beam>
</note>
</measure>
<measure number="55">
<note>
  <pitch>
    <step>B</step>
    <alter>0</alter>
    <octave>3</octave>
  </pitch>
  <duration>6</duration>
  <voice>1</voice>
  <type>eighth</type>
  <stem>up</stem>
  <beam number="1">begin</beam>
</note>
<note>
  <pitch>
    <step>B</step>
    <alter>0</alter>
    <octave>4</octave>
  </pitch>
  <duration>3</duration>
  <voice>1</voice>
  <type>16th</type>
  <stem>up</stem>
  <beam number="1">continue</beam>
  <beam number="2">begin</beam>
</note>
<note>
  <pitch>
    <step>B</step>
    <alter>0</alter>
    <octave>4</octave>
  </pitch>
  <duration>3</duration>
  <voice>1</voice>
  <type>16th</type>
  <stem>up</stem>
  <beam number="1">end</beam>
  <beam number="2">end</beam>
</note>
<note>
  <pitch>
    <step>B</step>
    <alter>0</alter>
    <octave>4</octave>
  </pitch>
  <duration>6</duration>
  <voice>1</voice>
  <type>eighth</type>
  <stem>up</stem>
</note>
<note>
  <rest/>
  <duration>6</duration>
  <voice>1</voice>
  <type>eighth</type>
</note>
</measure>
<measure number="56">
<note>
  <pitch>
    <step>B</step>
    <alter>0</alter>
    <octave>3</octave>
  </pitch>
  <duration>6</duration>
  <voice>1</voice>
  <type>eighth</type>
  <stem>up</stem>
  <beam number="1">begin</beam>
</note>
<note>
  <pitch>
    <step>B</step>
    <alter>0</alter>
    <octave>3</octave>
  </pitch>
  <duration>6</duration>
  <voice>1</voice>
  <type>eighth</type>
  <stem>up</stem>
  <beam number="1">end</beam>
</note>
<note>
  <pitch>
    <step>B</step>
    <alter>0</alter>
    <octave>4</octave>
  </pitch>
  <duration>3</duration>
  <voice>1</voice>
  <type>16th</type>
  <stem>down</stem>
  <beam number="1">begin</beam>
  <beam number="2">begin</beam>
</note>
<note>
  <pitch>
    <step>B</step>
    <alter>0</alter>
    <octave>4</octave>
  </pitch>
  <duration>3</duration>
  <voice>1</voice>
  <type>16th</type>
  <stem>down</stem>
  <beam number="1">continue</beam>
  <beam number="2">end</beam>
</note>
<note>
  <pitch>
    <step>B</step>
    <alter>0</alter>
    <octave>4</octave>
  </pitch>
  <duration>6</duration>
  <voice>1</voice>
  <type>eighth</type>
  <stem>down</stem>
  <beam number="1">end</beam>
</note>
</measure>
<measure number="57">
<note>
  <pitch>
    <step>B</step>
    <alter>0</alter>
    <octave>3</octave>
  </pitch>
  <duration>6</duration>
  <voice>1</voice>
  <type>eighth</type>
  <stem>up</stem>
  <beam number="1">begin</beam>
</note>
<note>
  <pitch>
    <step>B</step>
    <alter>0</alter>
    <octave>4</octave>
  </pitch>
  <duration>3</duration>
  <voice>1</voice>
  <type>16th</type>
  <stem>up</stem>
  <beam number="1">continue</beam>
  <beam number="2">begin</beam>
</note>
<note>
  <pitch>
    <step>B</step>
    <alter>0</alter>
    <octave>4</octave>
  </pitch>
  <duration>3</duration>
  <voice>1</voice>
  <type>16th</type>
  <stem>up</stem>
  <beam number="1">end</beam>
  <beam number="2">end</beam>
</note>
<note>
  <pitch>
    <step>B</step>
    <alter>0</alter>
    <octave>4</octave>
  </pitch>
  <duration>6</duration>
  <voice>1</voice>
  <type>eighth</type>
  <stem>up</stem>
  <beam number="1">begin</beam>
</note>
<note>
  <pitch>
    <step>B</step>
    <alter>0</alter>
    <octave>4</octave>
  </pitch>
  <duration>6</duration>
  <voice>1</voice>
  <type>eighth</type>
  <stem>up</stem>
  <beam number="1">end</beam>
</note>
</measure>
<measure number="58">
<note>
  <rest/>
  <duration>6</duration>
  <voice>1</voice>
  <type>eighth</type>
</note>
<note>
  <pitch>
    <step>F</step>
    <alter>0</alter>
    <octave>4</octave>
  </pitch>
  <duration>6</duration>
  <voice>1</voice>
  <type>eighth</type>
  <stem>up</stem>
</note>
<note>
  <pitch>
    <step>F</step>
    <alter>0</alter>
    <octave>4</octave>
  </pitch>
  <duration>9</duration>
  <voice>1</voice>
  <type>eighth</type>
  <dot/>
  <stem>up</stem>
  <beam number="1">begin</beam>
  <notations>
<slur type="start" number="2" placement="below" orientation="under"/>
  </notations>
</note>
<note>
  <pitch>
    <step>A</step>
    <alter>0</alter>
    <octave>4</octave>
  </pitch>
  <duration>3</duration>
  <voice>1</voice>
  <type>16th</type>
  <stem>up</stem>
  <beam number="1">end</beam>
  <beam number="2">backward hook</beam>
  <notations>
<slur type="start" number="3" placement="above" orientation="over"/>
    <slur type="stop" number="2"/>
  </notations>
</note>
</measure>
<measure number="59">
<note>
  <grace/>
  <pitch>
    <step>B</step>
    <alter>0</alter>
    <octave>4</octave>
  </pitch>
  <voice>1</voice>
  <type size="cue">16th</type>
  <stem>up</stem>
  <beam number="1">begin</beam>
  <beam number="2">begin</beam>
  <notations>
<slur type="start" number="4" placement="below" orientation="under"/>
    <slur type="stop" number="3"/>
  </notations>
</note>
<note>
  <grace/>
  <pitch>
    <step>B</step>
    <alter>0</alter>
    <octave>4</octave>
  </pitch>
  <voice>1</voice>
  <type size="cue">16th</type>
  <stem>up</stem>
  <beam number="1">continue</beam>
  <beam number="2">continue</beam>
</note>
<note>
  <grace/>
  <pitch>
    <step>E</step>
    <alter>0</alter>
    <octave>4</octave>
  </pitch>
  <voice>1</voice>
  <type size="cue">16th</type>
  <stem>up</stem>
  <beam number="1">continue</beam>
  <beam number="2">continue</beam>
  <notations>
    <slur type="stop" number="4"/>
  </notations>
</note>
<note>
  <grace/>
  <pitch>
    <step>A</step>
    <alter>0</alter>
    <octave>4</octave>
  </pitch>
  <voice>1</voice>
  <type size="cue">16th</type>
  <stem>up</stem>
  <beam number="1">end</beam>
  <beam number="2">end</beam>
</note>
<note>
  <pitch>
    <step>B</step>
    <alter>0</alter>
    <octave>4</octave>
  </pitch>
  <duration>6</duration>
  <voice>1</voice>
  <type>eighth</type>
  <stem>down</stem>
</note>
<note>
  <rest/>
  <duration>6</duration>
  <voice>1</voice>
  <type>eighth</type>
</note>
<note>
  <rest/>
  <duration>12</duration>
  <voice>1</voice>
  <type>quarter</type>
</note>
</measure>
<measure number="60">
<note>
  <rest/>
  <duration>6</duration>
  <voice>1</voice>
  <type>eighth</type>
</note>
<note>
  <pitch>
    <step>F</step>
    <alter>0</alter>
    <octave>4</octave>
  </pitch>
  <duration>6</duration>
  <voice>1</voice>
  <type>eighth</type>
  <stem>up</stem>
</note>
<note>
  <pitch>
    <step>F</step>
    <alter>0</alter>
    <octave>4</octave>
  </pitch>
  <duration>6</duration>
  <voice>1</voice>
  <type>eighth</type>
  <stem>up</stem>
  <beam number="1">begin</beam>
</note>
<note>
  <pitch>
    <step>F</step>
    <alter>0</alter>
    <octave>4</octave>
  </pitch>
  <duration>3</duration>
  <voice>1</voice>
  <type>16th</type>
  <stem>up</stem>
  <beam number="1">continue</beam>
  <beam number="2">begin</beam>
</note>
<note>
  <pitch>
    <step>A</step>
    <alter>0</alter>
    <octave>4</octave>
  </pitch>
  <duration>3</duration>
  <voice>1</voice>
  <type>16th</type>
  <stem>up</stem>
  <beam number="1">end</beam>
  <beam number="2">end</beam>
</note>
</measure>
<measure number="61">
<note>
  <pitch>
    <step>B</step>
    <alter>0</alter>
    <octave>4</octave>
  </pitch>
  <duration>3</duration>
  <voice>1</voice>
  <type>16th</type>
  <stem>up</stem>
  <beam number="1">begin</beam>
  <beam number="2">begin</beam>
</note>
<note>
  <pitch>
    <step>B</step>
    <alter>0</alter>
    <octave>4</octave>
  </pitch>
  <duration>3</duration>
  <voice>1</voice>
  <type>16th</type>
  <stem>up</stem>
  <beam number="1">continue</beam>
  <beam number="2">continue</beam>
</note>
<note>
  <pitch>
    <step>E</step>
    <alter>0</alter>
    <octave>4</octave>
  </pitch>
  <duration>3</duration>
  <voice>1</voice>
  <type>16th</type>
  <stem>up</stem>
  <beam number="1">continue</beam>
  <beam number="2">continue</beam>
</note>
<note>
  <pitch>
    <step>A</step>
    <alter>0</alter>
    <octave>4</octave>
  </pitch>
  <duration>3</duration>
  <voice>1</voice>
  <type>16th</type>
  <stem>up</stem>
  <beam number="1">end</beam>
  <beam number="2">end</beam>
</note>
<note>
  <pitch>
    <step>B</step>
    <alter>0</alter>
    <octave>4</octave>
  </pitch>
  <duration>6</duration>
  <voice>1</voice>
  <type>eighth</type>
  <stem>down</stem>
</note>
<note>
  <rest/>
  <duration>6</duration>
  <voice>1</voice>
  <type>eighth</type>
</note>
</measure>
<measure number="62">
<note>
  <pitch>
    <step>B</step>
    <alter>0</alter>
    <octave>4</octave>
  </pitch>
  <duration>3</duration>
  <voice>1</voice>
  <type>16th</type>
  <stem>up</stem>
  <beam number="1">begin</beam>
  <beam number="2">begin</beam>
</note>
<note>
  <pitch>
    <step>B</step>
    <alter>0</alter>
    <octave>4</octave>
  </pitch>
  <duration>3</duration>
  <voice>1</voice>
  <type>16th</type>
  <stem>up</stem>
  <beam number="1">continue</beam>
  <beam number="2">continue</beam>
</note>
<note>
  <pitch>
    <step>E</step>
    <alter>0</alter>
    <octave>4</octave>
  </pitch>
  <duration>3</duration>
  <voice>1</voice>
  <type>16th</type>
  <stem>up</stem>
  <beam number="1">continue</beam>
  <beam number="2">continue</beam>
</note>
<note>
  <pitch>
    <step>A</step>
    <alter>0</alter>
    <octave>4</octave>
  </pitch>
  <duration>3</duration>
  <voice>1</voice>
  <type>16th</type>
  <stem>up</stem>
  <beam number="1">end</beam>
  <beam number="2">end</beam>
</note>
<note>
  <pitch>
    <step>B</step>
    <alter>0</alter>
    <octave>4</octave>
  </pitch>
  <duration>3</duration>
  <voice>1</voice>
  <type>16th</type>
  <stem>up</stem>
  <beam number="1">begin</beam>
  <beam number="2">begin</beam>
</note>
<note>
  <pitch>
    <step>B</step>
    <alter>0</alter>
    <octave>4</octave>
  </pitch>
  <duration>3</duration>
  <voice>1</voice>
  <type>16th</type>
  <stem>up</stem>
  <beam number="1">continue</beam>
  <beam number="2">continue</beam>
</note>
<note>
  <pitch>
    <step>E</step>
    <alter>0</alter>
    <octave>4</octave>
  </pitch>
  <duration>3</duration>
  <voice>1</voice>
  <type>16th</type>
  <stem>up</stem>
  <beam number="1">continue</beam>
  <beam number="2">continue</beam>
</note>
<note>
  <pitch>
    <step>A</step>
    <alter>0</alter>
    <octave>4</octave>
  </pitch>
  <duration>3</duration>
  <voice>1</voice>
  <type>16th</type>
  <stem>up</stem>
  <beam number="1">end</beam>
  <beam number="2">end</beam>
</note>
</measure>
<measure number="63">
<note>
  <pitch>
    <step>B</step>
    <alter>0</alter>
    <octave>4</octave>
  </pitch>
  <duration>3</duration>
  <voice>1</voice>
  <type>16th</type>
  <stem>up</stem>
  <beam number="1">begin</beam>
  <beam number="2">begin</beam>
</note>
<note>
  <pitch>
    <step>B</step>
    <alter>0</alter>
    <octave>4</octave>
  </pitch>
  <duration>3</duration>
  <voice>1</voice>
  <type>16th</type>
  <stem>up</stem>
  <beam number="1">continue</beam>
  <beam number="2">continue</beam>
</note>
<note>
  <pitch>
    <step>E</step>
    <alter>0</alter>
    <octave>4</octave>
  </pitch>
  <duration>3</duration>
  <voice>1</voice>
  <type>16th</type>
  <stem>up</stem>
  <beam number="1">continue</beam>
  <beam number="2">continue</beam>
</note>
<note>
  <pitch>
    <step>A</step>
    <alter>0</alter>
    <octave>4</octave>
  </pitch>
  <duration>3</duration>
  <voice>1</voice>
  <type>16th</type>
  <stem>up</stem>
  <beam number="1">end</beam>
  <beam number="2">end</beam>
</note>
<note>
  <pitch>
    <step>B</step>
    <alter>0</alter>
    <octave>4</octave>
  </pitch>
  <duration>6</duration>
  <voice>1</voice>
  <type>eighth</type>
  <stem>down</stem>
</note>
<note>
  <rest/>
  <duration>6</duration>
  <voice>1</voice>
  <type>eighth</type>
</note>
</measure>
<measure number="64">
<note>
  <grace/>
  <pitch>
    <step>C</step>
    <alter>0</alter>
    <octave>5</octave>
  </pitch>
  <voice>1</voice>
  <type size="cue">quarter</type>
  <stem>down</stem>
</note>
<note>
  <rest/>
  <duration>12</duration>
  <voice>1</voice>
  <type>quarter</type>
</note>
<note>
  <pitch>
    <step>B</step>
    <alter>0</alter>
    <octave>4</octave>
  </pitch>
  <duration>12</duration>
  <voice>1</voice>
  <type>quarter</type>
  <stem>down</stem>
</note>
</measure>
<measure number="65">
<note>
  <pitch>
    <step>A</step>
    <alter>0</alter>
    <octave>4</octave>
  </pitch>
  <duration>12</duration>
  <voice>1</voice>
  <type>quarter</type>
  <stem>up</stem>
</note>
<note>
  <pitch>
    <step>B</step>
    <alter>0</alter>
    <octave>4</octave>
  </pitch>
  <duration>12</duration>
  <voice>1</voice>
  <type>quarter</type>
  <stem>up</stem>
</note>
</measure>
<measure number="66">
<note>
  <pitch>
    <step>C</step>
    <alter>0</alter>
    <octave>5</octave>
  </pitch>
  <duration>12</duration>
  <voice>1</voice>
  <type>quarter</type>
  <stem>down</stem>
  <notations>
<articulations><staccato placement="below"/></articulations>
  </notations>
</note>
<note>
  <pitch>
    <step>B</step>
    <alter>0</alter>
    <octave>4</octave>
  </pitch>
  <duration>12</duration>
  <voice>1</voice>
  <type>quarter</type>
  <stem>down</stem>
</note>
</measure>
<measure number="67">
<note>
  <pitch>
    <step>G</step>
    <alter>0</alter>
    <octave>4</octave>
  </pitch>
  <duration>12</duration>
  <voice>1</voice>
  <type>quarter</type>
  <stem>up</stem>
</note>
<note>
  <pitch>
    <step>F</step>
    <alter>1</alter>
    <octave>4</octave>
  </pitch>
  <duration>12</duration>
  <voice>1</voice>
  <type>quarter</type>
<accidental>sharp</accidental>
  <stem>up</stem>
</note>
</measure>
<measure number="68">
<note>
<cue/>
  <pitch>
    <step>E</step>
    <alter>0</alter>
    <octave>4</octave>
  </pitch>
  <duration>6</duration>
  <voice>1</voice>
  <type size="cue">eighth</type>
  <stem>up</stem>
  <beam number="1">begin</beam>
</note>
<note>
<cue/>
  <pitch>
    <step>F</step>
    <alter>1</alter>
    <octave>4</octave>
  </pitch>
  <duration>6</duration>
  <voice>1</voice>
  <type size="cue">eighth</type>
<accidental>sharp</accidental>
  <stem>up</stem>
  <beam number="1">end</beam>
</note>
<note>
<cue/>
  <pitch>
    <step>G</step>
    <alter>0</alter>
    <octave>4</octave>
  </pitch>
  <duration>3</duration>
  <voice>1</voice>
  <type size="cue">16th</type>
  <stem>up</stem>
  <beam number="1">begin</beam>
  <beam number="2">begin</beam>
</note>
<note>
<cue/>
  <pitch>
    <step>G</step>
    <alter>0</alter>
    <octave>4</octave>
  </pitch>
  <duration>3</duration>
  <voice>1</voice>
  <type size="cue">16th</type>
  <stem>up</stem>
  <beam number="1">continue</beam>
  <beam number="2">end</beam>
</note>
<note>
<cue/>
  <pitch>
    <step>F</step>
    <alter>1</alter>
    <octave>4</octave>
  </pitch>
  <duration>6</duration>
  <voice>1</voice>
  <type size="cue">eighth</type>
  <stem>up</stem>
  <beam number="1">end</beam>
</note>
</measure>
<measure number="69">
<note>
  <pitch>
    <step>G</step>
    <alter>0</alter>
    <octave>4</octave>
  </pitch>
  <duration>6</duration>
  <voice>1</voice>
  <type>eighth</type>
  <stem>up</stem>
  <beam number="1">begin</beam>
</note>
<note>
  <pitch>
    <step>G</step>
    <alter>0</alter>
    <octave>4</octave>
  </pitch>
  <duration>3</duration>
  <voice>1</voice>
  <type>16th</type>
  <stem>up</stem>
  <beam number="1">continue</beam>
  <beam number="2">begin</beam>
</note>
<note>
  <pitch>
    <step>G</step>
    <alter>0</alter>
    <octave>4</octave>
  </pitch>
  <duration>3</duration>
  <voice>1</voice>
  <type>16th</type>
  <stem>up</stem>
  <beam number="1">end</beam>
  <beam number="2">end</beam>
</note>
<note>
  <pitch>
    <step>F</step>
    <alter>1</alter>
    <octave>4</octave>
  </pitch>
  <duration>6</duration>
  <voice>1</voice>
  <type>eighth</type>
<accidental>sharp</accidental>
  <stem>up</stem>
</note>
<note>
  <rest/>
  <duration>6</duration>
  <voice>1</voice>
  <type>eighth</type>
</note>
</measure>
<measure number="70">
<note>
  <pitch>
    <step>E</step>
    <alter>0</alter>
    <octave>4</octave>
  </pitch>
  <duration>6</duration>
  <voice>1</voice>
  <type>eighth</type>
  <stem>up</stem>
  <beam number="1">begin</beam>
</note>
<note>
  <pitch>
    <step>F</step>
    <alter>1</alter>
    <octave>4</octave>
  </pitch>
  <duration>6</duration>
  <voice>1</voice>
  <type>eighth</type>
<accidental>sharp</accidental>
  <stem>up</stem>
  <beam number="1">end</beam>
</note>
<note>
  <pitch>
    <step>G</step>
    <alter>0</alter>
    <octave>4</octave>
  </pitch>
  <duration>3</duration>
  <voice>1</voice>
  <type>16th</type>
  <stem>up</stem>
  <beam number="1">begin</beam>
  <beam number="2">begin</beam>
</note>
<note>
  <pitch>
    <step>G</step>
    <alter>0</alter>
    <octave>4</octave>
  </pitch>
  <duration>3</duration>
  <voice>1</voice>
  <type>16th</type>
  <stem>up</stem>
  <beam number="1">continue</beam>
  <beam number="2">end</beam>
</note>
<note>
  <pitch>
    <step>F</step>
    <alter>1</alter>
    <octave>4</octave>
  </pitch>
  <duration>6</duration>
  <voice>1</voice>
  <type>eighth</type>
  <stem>up</stem>
  <beam number="1">end</beam>
</note>
</measure>
<measure number="71">
<note>
  <pitch>
    <step>G</step>
    <alter>0</alter>
    <octave>4</octave>
  </pitch>
  <duration>6</duration>
  <voice>1</voice>
  <type>eighth</type>
  <stem>up</stem>
  <beam number="1">begin</beam>
</note>
<note>
  <pitch>
    <step>G</step>
    <alter>0</alter>
    <octave>4</octave>
  </pitch>
  <duration>3</duration>
  <voice>1</voice>
  <type>16th</type>
  <stem>up</stem>
  <beam number="1">continue</beam>
  <beam number="2">begin</beam>
</note>
<note>
  <pitch>
    <step>G</step>
    <alter>0</alter>
    <octave>4</octave>
  </pitch>
  <duration>3</duration>
  <voice>1</voice>
  <type>16th</type>
  <stem>up</stem>
  <beam number="1">end</beam>
  <beam number="2">end</beam>
</note>
<note>
  <pitch>
    <step>F</step>
    <alter>1</alter>
    <octave>4</octave>
  </pitch>
  <duration>6</duration>
  <voice>1</voice>
  <type>eighth</type>
<accidental>sharp</accidental>
  <stem>up</stem>
  <beam number="1">begin</beam>
</note>
<note>
  <pitch>
    <step>G</step>
    <alter>0</alter>
    <octave>4</octave>
  </pitch>
  <duration>6</duration>
  <voice>1</voice>
  <type>eighth</type>
  <stem>up</stem>
  <beam number="1">end</beam>
</note>
</measure>
<measure number="72">
<note>
  <pitch>
    <step>E</step>
    <alter>0</alter>
    <octave>4</octave>
  </pitch>
  <duration>6</duration>
  <voice>1</voice>
  <type>eighth</type>
  <stem>up</stem>
  <beam number="1">begin</beam>
</note>
<note>
  <pitch>
    <step>E</step>
    <alter>0</alter>
    <octave>4</octave>
  </pitch>
  <duration>3</duration>
  <voice>1</voice>
  <type>16th</type>
  <stem>up</stem>
  <beam number="1">continue</beam>
  <beam number="2">begin</beam>
</note>
<note>
  <pitch>
    <step>E</step>
    <alter>0</alter>
    <octave>4</octave>
  </pitch>
  <duration>3</duration>
  <voice>1</voice>
  <type>16th</type>
  <stem>up</stem>
  <beam number="1">end</beam>
  <beam number="2">end</beam>
</note>
<note>
  <pitch>
    <step>E</step>
    <alter>0</alter>
    <octave>4</octave>
  </pitch>
  <duration>6</duration>
  <voice>1</voice>
  <type>eighth</type>
  <stem>up</stem>
</note>
<note>
  <rest/>
  <duration>6</duration>
  <voice>1</voice>
  <type>eighth</type>
</note>
</measure>
<measure number="73">
<note>
  <pitch>
    <step>E</step>
    <alter>0</alter>
    <octave>4</octave>
  </pitch>
  <duration>6</duration>
  <voice>1</voice>
  <type>eighth</type>
  <stem>up</stem>
  <beam number="1">begin</beam>
</note>
<note>
  <pitch>
    <step>E</step>
    <alter>0</alter>
    <octave>4</octave>
  </pitch>
  <duration>3</duration>
  <voice>1</voice>
  <type>16th</type>
  <stem>up</stem>
  <beam number="1">continue</beam>
  <beam number="2">begin</beam>
</note>
<note>
  <pitch>
    <step>E</step>
    <alter>0</alter>
    <octave>4</octave>
  </pitch>
  <duration>3</duration>
    <tie type="start"/>
  <voice>1</voice>
  <type>16th</type>
  <stem>up</stem>
  <beam number="1">end</beam>
  <beam number="2">end</beam>
  <notations>
<tied type="start" number="1" orientation="under"/>
  </notations>
</note>
<note>
  <pitch>
    <step>E</step>
    <alter>0</alter>
    <octave>4</octave>
  </pitch>
  <duration>6</duration>
    <tie type="stop"/>
  <voice>1</voice>
  <type>eighth</type>
  <stem>up</stem>
  <notations>
    <tied type="stop" number="1"/>
  </notations>
</note>
<note>
  <rest/>
  <duration>6</duration>
  <voice>1</voice>
  <type>eighth</type>
</note>
</measure>
<measure number="74">
<note>
  <pitch>
    <step>E</step>
    <alter>0</alter>
    <octave>4</octave>
  </pitch>
  <duration>6</duration>
  <voice>1</voice>
  <type>eighth</type>
  <stem>up</stem>
  <beam number="1">begin</beam>
</note>
<note>
  <pitch>
    <step>E</step>
    <alter>0</alter>
    <octave>4</octave>
  </pitch>
  <duration>3</duration>
  <voice>1</voice>
  <type>16th</type>
  <stem>up</stem>
  <beam number="1">continue</beam>
  <beam number="2">begin</beam>
</note>
<note>
  <pitch>
    <step>E</step>
    <alter>0</alter>
    <octave>4</octave>
  </pitch>
  <duration>3</duration>
  <voice>1</voice>
  <type>16th</type>
  <stem>up</stem>
  <beam number="1">end</beam>
  <beam number="2">end</beam>
</note>
<note>
  <pitch>
    <step>E</step>
    <alter>0</alter>
    <octave>4</octave>
  </pitch>
  <duration>6</duration>
  <voice>1</voice>
  <type>eighth</type>
  <stem>up</stem>
  <beam number="1">begin</beam>
</note>
<note>
  <pitch>
    <step>E</step>
    <alter>0</alter>
    <octave>4</octave>
  </pitch>
  <duration>3</duration>
  <voice>1</voice>
  <type>16th</type>
  <stem>up</stem>
  <beam number="1">continue</beam>
  <beam number="2">begin</beam>
</note>
<note>
  <pitch>
    <step>E</step>
    <alter>0</alter>
    <octave>4</octave>
  </pitch>
  <duration>3</duration>
  <voice>1</voice>
  <type>16th</type>
  <stem>up</stem>
  <beam number="1">end</beam>
  <beam number="2">end</beam>
</note>
</measure>
<measure number="75">
<note>
  <pitch>
    <step>E</step>
    <alter>0</alter>
    <octave>4</octave>
  </pitch>
  <duration>6</duration>
  <voice>1</voice>
  <type>eighth</type>
  <stem>up</stem>
  <beam number="1">begin</beam>
</note>
<note>
  <pitch>
    <step>E</step>
    <alter>0</alter>
    <octave>4</octave>
  </pitch>
  <duration>3</duration>
  <voice>1</voice>
  <type>16th</type>
  <stem>up</stem>
  <beam number="1">continue</beam>
  <beam number="2">begin</beam>
</note>
<note>
  <pitch>
    <step>E</step>
    <alter>0</alter>
    <octave>4</octave>
  </pitch>
  <duration>3</duration>
  <voice>1</voice>
  <type>16th</type>
  <stem>up</stem>
  <beam number="1">end</beam>
  <beam number="2">end</beam>
</note>
<note>
  <pitch>
    <step>E</step>
    <alter>0</alter>
    <octave>4</octave>
  </pitch>
  <duration>6</duration>
  <voice>1</voice>
  <type>eighth</type>
  <stem>up</stem>
</note>
<note>
  <rest/>
  <duration>6</duration>
  <voice>1</voice>
  <type>eighth</type>
</note>
<barline location="right"><bar-style>light-heavy</bar-style></barline>
</measure>
</part>
</score-partwise>
